<svg width="24" height="24" viewBox="0 0 24 24" fill="none" xmlns="http://www.w3.org/2000/svg">
<g id="End Call - Filled">
<path id="Vector" d="M12 2.5C7.83702 2.4945 5.02495 3.37601 3.06545 5.10351C2.24095 5.83051 1.85433 6.90661 2.04983 7.93261L2.24709 8.96777C2.43209 9.93777 3.34018 10.5892 4.36818 10.4902L6.41408 10.293C7.30608 10.207 8.06599 9.57449 8.29299 8.72949L8.91408 6.59472C9.84858 6.21172 11 5.99999 12 5.99999C13 5.99999 14.0455 6.18585 14.9795 6.56835L15.6016 8.70312C15.8286 9.54812 16.589 10.1806 17.4805 10.2666L19.5264 10.4639C20.5544 10.5629 21.4615 9.91238 21.6465 8.94238L21.8438 7.90722C22.0393 6.88122 21.6536 5.80414 20.8291 5.07714C18.8701 3.34914 16.163 2.5055 12 2.5ZM11.9883 9.98925C11.7896 9.99236 11.6002 10.0742 11.4617 10.2169C11.3233 10.3595 11.2472 10.5512 11.25 10.75V18.9394L9.28029 16.9697C9.21118 16.8977 9.12841 16.8403 9.03681 16.8007C8.94522 16.7611 8.84664 16.7402 8.74686 16.7392C8.64708 16.7382 8.5481 16.7571 8.45572 16.7948C8.36334 16.8325 8.27941 16.8883 8.20885 16.9588C8.1383 17.0294 8.08253 17.1133 8.04481 17.2057C8.00709 17.2981 7.98819 17.3971 7.9892 17.4968C7.99022 17.5966 8.01113 17.6952 8.05072 17.7868C8.0903 17.8784 8.14777 17.9612 8.21975 18.0303L11.4697 21.2803C11.6104 21.4209 11.8011 21.4998 12 21.4998C12.1989 21.4998 12.3896 21.4209 12.5303 21.2803L15.7803 18.0303C15.8523 17.9612 15.9097 17.8784 15.9493 17.7868C15.9889 17.6952 16.0098 17.5966 16.0108 17.4968C16.0119 17.3971 15.9929 17.2981 15.9552 17.2057C15.9175 17.1133 15.8617 17.0294 15.7912 16.9588C15.7206 16.8883 15.6367 16.8325 15.5443 16.7948C15.4519 16.7571 15.353 16.7382 15.2532 16.7392C15.1534 16.7402 15.0548 16.7611 14.9632 16.8007C14.8716 16.8403 14.7889 16.8977 14.7197 16.9697L12.75 18.9394V10.75C12.7515 10.6496 12.7327 10.55 12.695 10.4569C12.6572 10.3639 12.6011 10.2795 12.5301 10.2085C12.459 10.1376 12.3745 10.0816 12.2814 10.0439C12.1884 10.0063 12.0887 9.98768 11.9883 9.98925Z" fill="white"/>
</g>
</svg>
