<svg width="16" height="17" viewBox="0 0 16 17" fill="none" xmlns="http://www.w3.org/2000/svg">
<g id="Icon/ Chat Message Sent" clip-path="url(#clip0_2590_5282)">
<path id="Vector" d="M11.6663 0.997559C9.64134 0.997559 7.99967 2.63923 7.99967 4.66423C7.99967 6.68922 9.64134 8.33089 11.6663 8.33089C13.6913 8.33089 15.333 6.68922 15.333 4.66423C15.333 2.63923 13.6913 0.997559 11.6663 0.997559ZM3.49967 2.66423C2.30634 2.66423 1.33301 3.63756 1.33301 4.83089V10.4976C1.33301 11.6909 2.30634 12.6642 3.49967 12.6642H3.99967V14.4976C3.99967 14.8142 4.17663 15.101 4.45996 15.2443C4.57996 15.301 4.70634 15.3309 4.83301 15.3309C5.00967 15.3309 5.18634 15.2742 5.33301 15.1642L8.66634 12.6642H12.4997C13.693 12.6642 14.6663 11.6909 14.6663 10.4976V7.78727C14.3697 8.07394 14.033 8.31732 13.6663 8.50732V10.4976C13.6663 11.1409 13.143 11.6642 12.4997 11.6642H8.49967C8.39301 11.6642 8.28621 11.7012 8.19954 11.7645L4.99967 14.1642V12.1642C4.99967 11.8876 4.77634 11.6642 4.49967 11.6642H3.49967C2.85634 11.6642 2.33301 11.1409 2.33301 10.4976V4.83089C2.33301 4.18756 2.85634 3.66423 3.49967 3.66423H7.44954C7.53288 3.31089 7.65991 2.97756 7.82324 2.66423H3.49967ZM13.6663 2.99756C13.7516 2.99756 13.8369 3.03005 13.902 3.09521C14.0324 3.22555 14.0324 3.43624 13.902 3.56657L11.2354 6.23324C11.1704 6.29824 11.085 6.33089 10.9997 6.33089C10.9143 6.33089 10.829 6.29824 10.764 6.23324L9.43066 4.8999C9.30033 4.76957 9.30033 4.55888 9.43066 4.42855C9.561 4.29821 9.77169 4.29821 9.90202 4.42855L10.9997 5.5262L13.4307 3.09521C13.4958 3.03005 13.5811 2.99756 13.6663 2.99756Z" fill="#71717A"/>
</g>
<defs>
<clipPath id="clip0_2590_5282">
<rect width="16" height="16" fill="white" transform="translate(0 0.331055)"/>
</clipPath>
</defs>
</svg>
