<svg width="31" height="18" viewBox="0 0 31 18" fill="none" xmlns="http://www.w3.org/2000/svg">
<g id="Group">
<path id="Vector" d="M25.8224 17.7027H0.95752L5.20462 9.20849L0.95752 0.791504H25.8224L30.0695 9.20849L25.8224 17.7027Z" fill="#FAB64A"/>
<path id="D" d="M12 4.5752C12 4.5752 14.3166 4.5752 15.5521 4.5752C15.861 4.5752 16.1699 4.5752 16.4015 4.65242C16.7104 4.72964 17.0193 4.80686 17.251 4.88408C17.7915 5.03852 18.2548 5.3474 18.7181 5.65628C19.1042 5.96516 19.4903 6.27405 19.722 6.66015C19.9537 6.96903 20.1853 7.35512 20.3398 7.664C20.417 7.97288 20.5714 8.28176 20.5714 8.51342C20.6487 8.97675 20.7259 9.28563 20.6486 9.74895C20.6486 10.0578 20.5714 10.2895 20.5714 10.5212C20.4942 10.7528 20.4942 10.9845 20.417 11.2161C20.3398 11.6022 20.1081 11.9883 19.9537 12.22C19.6448 12.7605 19.1815 13.1466 18.7181 13.5327C18.332 13.7644 17.9459 13.9961 17.6371 14.1505C17.251 14.3049 16.8649 14.4594 16.4788 14.4594C16.2471 14.4594 16.0154 14.5366 15.7066 14.5366C15.166 14.5366 14.7027 14.5366 14.1622 14.5366C13.4672 14.5366 12 14.5366 12 14.5366V4.5752ZM13.8533 9.5945C13.8533 10.6756 13.8533 12.915 13.8533 12.915C13.8533 12.915 14.7799 12.915 15.3205 12.915C15.6293 12.915 15.9382 12.915 16.2471 12.8378C16.556 12.7605 16.9421 12.6833 17.1737 12.5289C17.6371 12.2972 17.9459 11.9883 18.2548 11.6022C18.4865 11.2161 18.7181 10.83 18.7954 10.5212C18.8726 10.2123 18.9498 9.82616 18.8726 9.5945C18.8726 9.2084 18.7954 8.82231 18.6409 8.59065C18.4093 8.05011 18.1004 7.664 17.7143 7.35512C17.251 6.96902 16.7104 6.73736 16.0927 6.58292C15.7066 6.5057 15.3977 6.5057 15.0888 6.5057C14.7799 6.5057 13.9305 6.5057 13.9305 6.5057C13.9305 6.5057 13.8533 8.51342 13.8533 9.5945Z" fill="white"/>
</g>
</svg>
