<svg width="14" height="8" viewBox="0 0 14 8" fill="none" xmlns="http://www.w3.org/2000/svg">
<g id="Vector">
<mask id="path-1-inside-1_2590_10837" fill="white">
<path d="M13.4952 -0.00718466C13.3632 -0.00406635 13.2377 0.051169 13.1463 0.146461L6.99977 6.29295L0.853281 0.146461C0.806675 0.0984658 0.750913 0.0603102 0.689295 0.0342541C0.627677 0.00819797 0.561458 -0.00522888 0.494557 -0.00523154C0.39505 -0.00520727 0.297813 0.0245043 0.215286 0.080102C0.13276 0.1357 0.0686978 0.214655 0.0312962 0.306866C-0.00610543 0.399076 -0.0151455 0.500349 0.00533262 0.597726C0.0258107 0.695103 0.0748757 0.784157 0.14625 0.853492L6.64625 7.35349C6.74002 7.44723 6.86718 7.49988 6.99977 7.49988C7.13235 7.49988 7.25951 7.44723 7.35328 7.35349L13.8533 0.853492C13.926 0.783706 13.9759 0.693579 13.9965 0.594925C14.0171 0.496271 14.0074 0.393696 13.9687 0.300647C13.93 0.207598 13.8641 0.128417 13.7796 0.0734854C13.6951 0.0185538 13.596 -0.00956502 13.4952 -0.00718466Z"/>
</mask>
<path d="M13.4952 -0.00718466L13.5266 1.32244L13.5266 1.32244L13.4952 -0.00718466ZM13.1463 0.146461L14.0867 1.08691L14.0963 1.07727L14.1058 1.06743L13.1463 0.146461ZM6.99977 6.29295L6.05931 7.2334L6.99977 8.17385L7.94022 7.2334L6.99977 6.29295ZM0.853281 0.146461L-0.100882 1.073L-0.0940776 1.08001L-0.0871709 1.08691L0.853281 0.146461ZM0.494557 -0.00523154L0.49461 -1.33523L0.494233 -1.33523L0.494557 -0.00523154ZM0.14625 0.853492L1.0867 -0.0869596L1.07989 -0.093772L1.07298 -0.100485L0.14625 0.853492ZM6.64625 7.35349L5.7058 8.29394L5.70599 8.29414L6.64625 7.35349ZM6.99977 7.49988L6.99977 6.16988L6.99977 7.49988ZM7.35328 7.35349L8.29354 8.29414L8.29373 8.29394L7.35328 7.35349ZM13.8533 0.853492L12.9323 -0.106051L12.9225 -0.096605L12.9128 -0.0869597L13.8533 0.853492ZM13.4638 -1.33681C12.9806 -1.3254 12.5214 -1.12325 12.1867 -0.774512L14.1058 1.06743C13.954 1.22559 13.7458 1.31727 13.5266 1.32244L13.4638 -1.33681ZM12.2058 -0.793991L6.05931 5.35249L7.94022 7.2334L14.0867 1.08691L12.2058 -0.793991ZM7.94022 5.35249L1.79373 -0.793991L-0.0871709 1.08691L6.05931 7.2334L7.94022 5.35249ZM1.80744 -0.780077C1.63688 -0.955726 1.4328 -1.09537 1.2073 -1.19072L0.171291 1.25923C0.0690207 1.21599 -0.0235303 1.15266 -0.100882 1.073L1.80744 -0.780077ZM1.2073 -1.19072C0.981793 -1.28608 0.739446 -1.33522 0.49461 -1.33523L0.494504 1.32477C0.383469 1.32476 0.273562 1.30248 0.171291 1.25923L1.2073 -1.19072ZM0.494233 -1.33523C0.130064 -1.33514 -0.225799 -1.22641 -0.527824 -1.02293L0.958397 1.18314C0.821424 1.27542 0.660036 1.32473 0.494882 1.32477L0.494233 -1.33523ZM-0.527824 -1.02293C-0.829849 -0.81946 -1.0643 -0.530505 -1.20118 -0.193039L1.26377 0.80677C1.2017 0.959815 1.09537 1.09086 0.958397 1.18314L-0.527824 -1.02293ZM-1.20118 -0.193039C-1.33806 0.144428 -1.37114 0.515059 -1.2962 0.871434L1.30686 0.324019C1.34085 0.485639 1.32585 0.653725 1.26377 0.80677L-1.20118 -0.193039ZM-1.2962 0.871434C-1.22125 1.22781 -1.04169 1.55372 -0.780479 1.80747L1.07298 -0.100485C1.19144 0.0145935 1.27288 0.162399 1.30686 0.324019L-1.2962 0.871434ZM-0.794202 1.79394L5.7058 8.29394L7.5867 6.41304L1.0867 -0.0869596L-0.794202 1.79394ZM5.70599 8.29414C6.04917 8.63718 6.51454 8.82988 6.99977 8.82988L6.99977 6.16988C7.21982 6.16988 7.43087 6.25727 7.58651 6.41285L5.70599 8.29414ZM6.99977 8.82988C7.48499 8.82988 7.95036 8.63718 8.29354 8.29414L6.41302 6.41285C6.56866 6.25727 6.77971 6.16988 6.99977 6.16988L6.99977 8.82988ZM8.29373 8.29394L14.7937 1.79394L12.9128 -0.0869597L6.41283 6.41304L8.29373 8.29394ZM14.7742 1.81304C15.0403 1.55764 15.2231 1.22779 15.2984 0.866747L12.6946 0.323103C12.7288 0.159362 12.8116 0.0097749 12.9323 -0.106051L14.7742 1.81304ZM15.2984 0.866747C15.3738 0.505695 15.3383 0.130297 15.1967 -0.210232L12.7407 0.811526C12.6765 0.657095 12.6604 0.486848 12.6946 0.323103L15.2984 0.866747ZM15.1967 -0.210232C15.055 -0.550763 14.8137 -0.840545 14.5045 -1.04158L13.0546 1.18855C12.9144 1.09738 12.805 0.965958 12.7407 0.811526L15.1967 -0.210232ZM14.5045 -1.04158C14.1953 -1.24262 13.8325 -1.34553 13.4638 -1.33681L13.5266 1.32244C13.3594 1.3264 13.1949 1.27973 13.0546 1.18855L14.5045 -1.04158Z" fill="#18181B" mask="url(#path-1-inside-1_2590_10837)"/>
</g>
</svg>
