<svg width="16" height="16" viewBox="0 0 16 16" fill="none" xmlns="http://www.w3.org/2000/svg">
<g id="Icon/ Globe">
<g id="Vector">
<mask id="path-1-inside-1_2590_7471" fill="white">
<path d="M8.00016 1.33337C4.32418 1.33337 1.3335 4.32407 1.3335 8.00004C1.3335 11.676 4.32418 14.6667 8.00016 14.6667C11.6761 14.6667 14.6668 11.676 14.6668 8.00004C14.6668 4.32407 11.6761 1.33337 8.00016 1.33337ZM8.00016 2.33337C8.24433 2.33337 8.49229 2.43501 8.76449 2.68559C9.03668 2.93616 9.31277 3.33421 9.54899 3.84835C9.73899 4.26188 9.87913 4.79213 10.0073 5.33337H5.993C6.1212 4.79213 6.26133 4.26188 6.45133 3.84835C6.68756 3.33421 6.96364 2.93616 7.23584 2.68559C7.50804 2.43501 7.75599 2.33337 8.00016 2.33337ZM5.92594 2.72921C5.78809 2.94583 5.65889 3.17767 5.54248 3.43103C5.28881 3.98314 5.09847 4.63665 4.95068 5.33337H2.99886C3.62931 4.15068 4.66695 3.22353 5.92594 2.72921ZM10.0744 2.72921C11.3334 3.22353 12.371 4.15068 13.0015 5.33337H11.0496C10.9019 4.63665 10.7115 3.98314 10.4578 3.43103C10.3414 3.17767 10.2122 2.94583 10.0744 2.72921ZM2.58285 6.33337H4.82048C4.75197 6.87745 4.66683 7.41066 4.66683 8.00004C4.66683 8.58942 4.75197 9.12263 4.82048 9.66671H2.58285C2.42161 9.13993 2.3335 8.58046 2.3335 8.00004C2.3335 7.41962 2.42161 6.86015 2.58285 6.33337ZM5.82243 6.33337H10.1779C10.2522 6.87118 10.3335 7.40692 10.3335 8.00004C10.3335 8.59317 10.2522 9.1289 10.1779 9.66671H5.82243C5.74809 9.1289 5.66683 8.59317 5.66683 8.00004C5.66683 7.40692 5.74809 6.87118 5.82243 6.33337ZM11.1799 6.33337H13.4175C13.5787 6.86015 13.6668 7.41962 13.6668 8.00004C13.6668 8.58046 13.5787 9.13993 13.4175 9.66671H11.1799C11.2484 9.12263 11.3335 8.58942 11.3335 8.00004C11.3335 7.41066 11.2484 6.87745 11.1799 6.33337ZM2.99886 10.6667H4.95068C5.09847 11.3634 5.28881 12.0169 5.54248 12.5691C5.65889 12.8224 5.78809 13.0543 5.92594 13.2709C4.66695 12.7766 3.62931 11.8494 2.99886 10.6667ZM5.993 10.6667H10.0073C9.87913 11.208 9.73899 11.7382 9.54899 12.1517C9.31277 12.6659 9.03668 13.0639 8.76449 13.3145C8.49229 13.5651 8.24433 13.6667 8.00016 13.6667C7.75599 13.6667 7.50804 13.5651 7.23584 13.3145C6.96364 13.0639 6.68756 12.6659 6.45133 12.1517C6.26133 11.7382 6.1212 11.208 5.993 10.6667ZM11.0496 10.6667H13.0015C12.371 11.8494 11.3334 12.7766 10.0744 13.2709C10.2122 13.0543 10.3414 12.8224 10.4578 12.5691C10.7115 12.0169 10.9019 11.3634 11.0496 10.6667Z"/>
</mask>
<path d="M8.00016 1.33337C4.32418 1.33337 1.3335 4.32407 1.3335 8.00004C1.3335 11.676 4.32418 14.6667 8.00016 14.6667C11.6761 14.6667 14.6668 11.676 14.6668 8.00004C14.6668 4.32407 11.6761 1.33337 8.00016 1.33337ZM8.00016 2.33337C8.24433 2.33337 8.49229 2.43501 8.76449 2.68559C9.03668 2.93616 9.31277 3.33421 9.54899 3.84835C9.73899 4.26188 9.87913 4.79213 10.0073 5.33337H5.993C6.1212 4.79213 6.26133 4.26188 6.45133 3.84835C6.68756 3.33421 6.96364 2.93616 7.23584 2.68559C7.50804 2.43501 7.75599 2.33337 8.00016 2.33337ZM5.92594 2.72921C5.78809 2.94583 5.65889 3.17767 5.54248 3.43103C5.28881 3.98314 5.09847 4.63665 4.95068 5.33337H2.99886C3.62931 4.15068 4.66695 3.22353 5.92594 2.72921ZM10.0744 2.72921C11.3334 3.22353 12.371 4.15068 13.0015 5.33337H11.0496C10.9019 4.63665 10.7115 3.98314 10.4578 3.43103C10.3414 3.17767 10.2122 2.94583 10.0744 2.72921ZM2.58285 6.33337H4.82048C4.75197 6.87745 4.66683 7.41066 4.66683 8.00004C4.66683 8.58942 4.75197 9.12263 4.82048 9.66671H2.58285C2.42161 9.13993 2.3335 8.58046 2.3335 8.00004C2.3335 7.41962 2.42161 6.86015 2.58285 6.33337ZM5.82243 6.33337H10.1779C10.2522 6.87118 10.3335 7.40692 10.3335 8.00004C10.3335 8.59317 10.2522 9.1289 10.1779 9.66671H5.82243C5.74809 9.1289 5.66683 8.59317 5.66683 8.00004C5.66683 7.40692 5.74809 6.87118 5.82243 6.33337ZM11.1799 6.33337H13.4175C13.5787 6.86015 13.6668 7.41962 13.6668 8.00004C13.6668 8.58046 13.5787 9.13993 13.4175 9.66671H11.1799C11.2484 9.12263 11.3335 8.58942 11.3335 8.00004C11.3335 7.41066 11.2484 6.87745 11.1799 6.33337ZM2.99886 10.6667H4.95068C5.09847 11.3634 5.28881 12.0169 5.54248 12.5691C5.65889 12.8224 5.78809 13.0543 5.92594 13.2709C4.66695 12.7766 3.62931 11.8494 2.99886 10.6667ZM5.993 10.6667H10.0073C9.87913 11.208 9.73899 11.7382 9.54899 12.1517C9.31277 12.6659 9.03668 13.0639 8.76449 13.3145C8.49229 13.5651 8.24433 13.6667 8.00016 13.6667C7.75599 13.6667 7.50804 13.5651 7.23584 13.3145C6.96364 13.0639 6.68756 12.6659 6.45133 12.1517C6.26133 11.7382 6.1212 11.208 5.993 10.6667ZM11.0496 10.6667H13.0015C12.371 11.8494 11.3334 12.7766 10.0744 13.2709C10.2122 13.0543 10.3414 12.8224 10.4578 12.5691C10.7115 12.0169 10.9019 11.3634 11.0496 10.6667Z" fill="#71717A"/>
<path d="M8.76449 2.68559L9.66527 1.70708L9.66527 1.70708L8.76449 2.68559ZM9.54899 3.84835L8.34045 4.40362L8.34045 4.40362L9.54899 3.84835ZM10.0073 5.33337V6.66337H11.6891L11.3015 5.02684L10.0073 5.33337ZM5.993 5.33337L4.69881 5.02684L4.31119 6.66337H5.993V5.33337ZM6.45133 3.84835L7.65987 4.40362L7.65988 4.40362L6.45133 3.84835ZM7.23584 2.68559L6.33505 1.70708L6.33505 1.70708L7.23584 2.68559ZM5.92594 2.72921L7.04799 3.44328L9.23979 -0.000754954L5.43987 1.49121L5.92594 2.72921ZM5.54248 3.43103L4.33394 2.87576L4.33394 2.87576L5.54248 3.43103ZM4.95068 5.33337V6.66337H6.02816L6.25174 5.60935L4.95068 5.33337ZM2.99886 5.33337L1.8252 4.70774L0.782728 6.66337H2.99886V5.33337ZM10.0744 2.72921L10.5605 1.49121L6.76053 -0.000754954L8.95233 3.44328L10.0744 2.72921ZM13.0015 5.33337V6.66337H15.2176L14.1751 4.70774L13.0015 5.33337ZM11.0496 5.33337L9.74859 5.60935L9.97217 6.66337H11.0496V5.33337ZM10.4578 3.43103L11.6664 2.87576L11.6664 2.87576L10.4578 3.43103ZM2.58285 6.33337V5.00337H1.59903L1.31109 5.9441L2.58285 6.33337ZM4.82048 6.33337L6.14006 6.49952L6.32843 5.00337H4.82048V6.33337ZM4.82048 9.66671V10.9967H6.32843L6.14006 9.50056L4.82048 9.66671ZM2.58285 9.66671L1.31109 10.056L1.59903 10.9967H2.58285V9.66671ZM5.82243 6.33337V5.00337H4.66362L4.50496 6.15126L5.82243 6.33337ZM10.1779 6.33337L11.4954 6.15126L11.3367 5.00337H10.1779V6.33337ZM10.1779 9.66671V10.9967H11.3367L11.4954 9.84882L10.1779 9.66671ZM5.82243 9.66671L4.50496 9.84882L4.66362 10.9967H5.82243V9.66671ZM11.1799 6.33337V5.00337H9.67189L9.86027 6.49952L11.1799 6.33337ZM13.4175 6.33337L14.6892 5.9441L14.4013 5.00337H13.4175V6.33337ZM13.4175 9.66671V10.9967H14.4013L14.6892 10.056L13.4175 9.66671ZM11.1799 9.66671L9.86027 9.50056L9.67189 10.9967H11.1799V9.66671ZM2.99886 10.6667V9.33671H0.782728L1.8252 11.2923L2.99886 10.6667ZM4.95068 10.6667L6.25174 10.3907L6.02816 9.33671H4.95068V10.6667ZM5.54248 12.5691L4.33394 13.1243L4.33394 13.1243L5.54248 12.5691ZM5.92594 13.2709L5.43987 14.5089L9.2398 16.0008L7.04799 12.5568L5.92594 13.2709ZM5.993 10.6667V9.33671H4.31119L4.69881 10.9732L5.993 10.6667ZM10.0073 10.6667L11.3015 10.9732L11.6891 9.33671H10.0073V10.6667ZM9.54899 12.1517L8.34045 11.5965L8.34045 11.5965L9.54899 12.1517ZM8.76449 13.3145L7.8637 12.336L7.8637 12.336L8.76449 13.3145ZM7.23584 13.3145L8.13663 12.336L8.13663 12.336L7.23584 13.3145ZM6.45133 12.1517L7.65988 11.5965L7.65987 11.5965L6.45133 12.1517ZM11.0496 10.6667V9.33671H9.97217L9.74859 10.3907L11.0496 10.6667ZM13.0015 10.6667L14.1751 11.2923L15.2176 9.33671H13.0015V10.6667ZM10.0744 13.2709L8.95233 12.5568L6.76053 16.0008L10.5605 14.5089L10.0744 13.2709ZM10.4578 12.5691L11.6664 13.1243L11.6664 13.1243L10.4578 12.5691ZM8.00016 0.00337398C3.58965 0.00337398 0.00349605 3.58953 0.00349605 8.00004H2.6635C2.6635 5.0586 5.05872 2.66337 8.00016 2.66337V0.00337398ZM0.00349605 8.00004C0.00349605 12.4106 3.58965 15.9967 8.00016 15.9967V13.3367C5.05872 13.3367 2.6635 10.9415 2.6635 8.00004H0.00349605ZM8.00016 15.9967C12.4107 15.9967 15.9968 12.4106 15.9968 8.00004H13.3368C13.3368 10.9415 10.9416 13.3367 8.00016 13.3367V15.9967ZM15.9968 8.00004C15.9968 3.58953 12.4107 0.00337398 8.00016 0.00337398V2.66337C10.9416 2.66337 13.3368 5.0586 13.3368 8.00004H15.9968ZM8.00016 3.66337C7.96782 3.66337 7.93432 3.65989 7.90176 3.65281C7.86941 3.64578 7.84433 3.63658 7.8277 3.62912C7.79571 3.61478 7.80807 3.61289 7.8637 3.6641L9.66527 1.70708C9.22115 1.29823 8.66618 1.00337 8.00016 1.00337V3.66337ZM7.8637 3.6641C7.96726 3.75944 8.1518 3.99303 8.34045 4.40362L10.7575 3.29307C10.4737 2.6754 10.1061 2.11289 9.66527 1.70708L7.8637 3.6641ZM8.34045 4.40362C8.46871 4.68277 8.58374 5.09364 8.71313 5.63991L11.3015 5.02684C11.1745 4.49062 11.0093 3.841 10.7575 3.29307L8.34045 4.40362ZM10.0073 4.00337H5.993V6.66337H10.0073V4.00337ZM7.2872 5.63991C7.41658 5.09364 7.53162 4.68277 7.65987 4.40362L5.24279 3.29307C4.99105 3.841 4.82581 4.49062 4.69881 5.02684L7.2872 5.63991ZM7.65988 4.40362C7.84853 3.99303 8.03306 3.75944 8.13663 3.6641L6.33505 1.70708C5.89422 2.11289 5.52659 2.6754 5.24279 3.29307L7.65988 4.40362ZM8.13663 3.6641C8.19225 3.61289 8.20461 3.61478 8.17263 3.62912C8.15599 3.63658 8.13092 3.64578 8.09856 3.65281C8.066 3.65989 8.0325 3.66337 8.00016 3.66337V1.00337C7.33414 1.00337 6.77917 1.29823 6.33505 1.70708L8.13663 3.6641ZM4.80389 2.01513C4.63698 2.27741 4.47802 2.56218 4.33394 2.87576L6.75102 3.98631C6.83977 3.79315 6.93919 3.61424 7.04799 3.44328L4.80389 2.01513ZM4.33394 2.87576C4.0239 3.55054 3.80849 4.30849 3.64963 5.0574L6.25174 5.60935C6.38846 4.9648 6.55372 4.41573 6.75102 3.98631L4.33394 2.87576ZM4.95068 4.00337H2.99886V6.66337H4.95068V4.00337ZM4.17252 5.95901C4.65404 5.05571 5.4479 4.34574 6.41202 3.9672L5.43987 1.49121C3.88599 2.10131 2.60458 3.24566 1.8252 4.70774L4.17252 5.95901ZM9.58831 3.9672C10.5524 4.34574 11.3463 5.05571 11.8278 5.95901L14.1751 4.70774C13.3957 3.24566 12.1143 2.10131 10.5605 1.49121L9.58831 3.9672ZM13.0015 4.00337H11.0496V6.66337H13.0015V4.00337ZM12.3507 5.0574C12.1918 4.30849 11.9764 3.55054 11.6664 2.87576L9.2493 3.98631C9.44661 4.41573 9.61187 4.9648 9.74859 5.60935L12.3507 5.0574ZM11.6664 2.87576C11.5223 2.56218 11.3633 2.27741 11.1964 2.01513L8.95233 3.44328C9.06113 3.61424 9.16056 3.79315 9.24931 3.98631L11.6664 2.87576ZM2.58285 7.66337H4.82048V5.00337H2.58285V7.66337ZM3.50089 6.16723C3.43921 6.65713 3.33683 7.30362 3.33683 8.00004H5.99683C5.99683 7.51769 6.06473 7.09776 6.14006 6.49952L3.50089 6.16723ZM3.33683 8.00004C3.33683 8.69646 3.43921 9.34295 3.50089 9.83285L6.14006 9.50056C6.06473 8.90232 5.99683 8.48239 5.99683 8.00004H3.33683ZM4.82048 8.33671H2.58285V10.9967H4.82048V8.33671ZM3.8546 9.27744C3.73096 8.87349 3.6635 8.4451 3.6635 8.00004H1.0035C1.0035 8.71582 1.11225 9.40638 1.31109 10.056L3.8546 9.27744ZM3.6635 8.00004C3.6635 7.55499 3.73096 7.12659 3.8546 6.72264L1.31109 5.9441C1.11225 6.5937 1.0035 7.28426 1.0035 8.00004H3.6635ZM5.82243 7.66337H10.1779V5.00337H5.82243V7.66337ZM8.86042 6.51548C8.9384 7.07956 9.0035 7.51707 9.0035 8.00004H11.6635C11.6635 7.29676 11.5661 6.66279 11.4954 6.15126L8.86042 6.51548ZM9.0035 8.00004C9.0035 8.48301 8.9384 8.92052 8.86042 9.4846L11.4954 9.84882C11.5661 9.33729 11.6635 8.70332 11.6635 8.00004H9.0035ZM10.1779 8.33671H5.82243V10.9967H10.1779V8.33671ZM7.1399 9.4846C7.06193 8.92052 6.99683 8.48301 6.99683 8.00004H4.33683C4.33683 8.70332 4.43425 9.33729 4.50496 9.84882L7.1399 9.4846ZM6.99683 8.00004C6.99683 7.51707 7.06193 7.07956 7.1399 6.51548L4.50496 6.15126C4.43425 6.66279 4.33683 7.29676 4.33683 8.00004H6.99683ZM11.1799 7.66337H13.4175V5.00337H11.1799V7.66337ZM12.1457 6.72264C12.2694 7.12659 12.3368 7.55499 12.3368 8.00004H14.9968C14.9968 7.28426 14.8881 6.5937 14.6892 5.9441L12.1457 6.72264ZM12.3368 8.00004C12.3368 8.4451 12.2694 8.87349 12.1457 9.27744L14.6892 10.056C14.8881 9.40638 14.9968 8.71582 14.9968 8.00004H12.3368ZM13.4175 8.33671H11.1799V10.9967H13.4175V8.33671ZM12.4994 9.83285C12.5611 9.34295 12.6635 8.69646 12.6635 8.00004H10.0035C10.0035 8.48239 9.93559 8.90232 9.86027 9.50056L12.4994 9.83285ZM12.6635 8.00004C12.6635 7.30362 12.5611 6.65714 12.4994 6.16723L9.86027 6.49952C9.93559 7.09776 10.0035 7.51769 10.0035 8.00004H12.6635ZM2.99886 11.9967H4.95068V9.33671H2.99886V11.9967ZM3.64963 10.9427C3.80849 11.6916 4.0239 12.4495 4.33394 13.1243L6.75102 12.0138C6.55372 11.5844 6.38846 11.0353 6.25174 10.3907L3.64963 10.9427ZM4.33394 13.1243C4.47802 13.4379 4.63698 13.7227 4.8039 13.985L7.04799 12.5568C6.9392 12.3858 6.83977 12.2069 6.75102 12.0138L4.33394 13.1243ZM6.41202 12.0329C5.4479 11.6543 4.65404 10.9444 4.17252 10.0411L1.8252 11.2923C2.60458 12.7544 3.88599 13.8988 5.43987 14.5089L6.41202 12.0329ZM5.993 11.9967H10.0073V9.33671H5.993V11.9967ZM8.71313 10.3602C8.58374 10.9064 8.46871 11.3173 8.34045 11.5965L10.7575 12.707C11.0093 12.1591 11.1745 11.5095 11.3015 10.9732L8.71313 10.3602ZM8.34045 11.5965C8.1518 12.0071 7.96726 12.2406 7.8637 12.336L9.66527 14.293C10.1061 13.8872 10.4737 13.3247 10.7575 12.707L8.34045 11.5965ZM7.8637 12.336C7.80807 12.3872 7.79571 12.3853 7.8277 12.371C7.84433 12.3635 7.86941 12.3543 7.90176 12.3473C7.93432 12.3402 7.96782 12.3367 8.00016 12.3367V14.9967C8.66618 14.9967 9.22115 14.7018 9.66527 14.293L7.8637 12.336ZM8.00016 12.3367C8.0325 12.3367 8.066 12.3402 8.09856 12.3473C8.13091 12.3543 8.15599 12.3635 8.17263 12.371C8.20461 12.3853 8.19225 12.3872 8.13663 12.336L6.33505 14.293C6.77917 14.7018 7.33414 14.9967 8.00016 14.9967V12.3367ZM8.13663 12.336C8.03306 12.2406 7.84853 12.0071 7.65988 11.5965L5.24279 12.707C5.52659 13.3247 5.89422 13.8872 6.33505 14.293L8.13663 12.336ZM7.65987 11.5965C7.53162 11.3173 7.41658 10.9064 7.2872 10.3602L4.69881 10.9732C4.82581 11.5095 4.99105 12.1591 5.24279 12.707L7.65987 11.5965ZM11.0496 11.9967H13.0015V9.33671H11.0496V11.9967ZM11.8278 10.0411C11.3463 10.9444 10.5524 11.6543 9.58831 12.0329L10.5605 14.5089C12.1143 13.8988 13.3957 12.7544 14.1751 11.2923L11.8278 10.0411ZM11.1964 13.985C11.3633 13.7227 11.5223 13.4379 11.6664 13.1243L9.24931 12.0138C9.16056 12.2069 9.06113 12.3858 8.95233 12.5568L11.1964 13.985ZM11.6664 13.1243C11.9764 12.4495 12.1918 11.6916 12.3507 10.9427L9.74859 10.3907C9.61187 11.0353 9.44661 11.5844 9.2493 12.0138L11.6664 13.1243Z" fill="#71717A" mask="url(#path-1-inside-1_2590_7471)"/>
</g>
</g>
</svg>
