<svg width="61" height="21" viewBox="0 0 61 21" fill="none" xmlns="http://www.w3.org/2000/svg">
<g id="EPC_00000126317891905626066540000011686503339283009192_">
<path id="Vector" d="M55.8265 0.24707H0.768555L5.78786 10.2085L0.768555 20.2471H55.9037L61.0002 10.2857L55.8265 0.24707Z" fill="white"/>
<path id="Vector_2" d="M28.1818 1.7915H3.23975L7.56405 10.2085L3.23975 18.7027H28.1818L32.4289 10.2085L28.1818 1.7915Z" fill="#24536D"/>
<path id="C_00000101092857869531699790000017086047266321032106_" d="M26.7143 13.5288C26.4054 13.606 26.6371 13.5288 26.0193 13.606C25.7104 13.6832 25.4015 13.6832 25.0927 13.6832C24.166 13.6832 23.1622 13.5288 22.4672 12.911C21 11.6755 20.9228 8.97279 22.2355 7.66005C22.9305 6.88785 23.9344 6.7334 24.861 6.7334C25.2471 6.7334 25.6332 6.7334 25.9421 6.81062C26.5599 6.88784 26.251 6.88785 26.6371 6.88785C26.6371 6.96507 26.6371 7.42838 26.6371 7.5056C26.6371 7.58282 26.6371 8.04615 26.6371 8.04615C26.3282 8.04615 26.4826 8.04614 25.8649 7.96892C25.4015 7.8917 25.0155 7.8917 24.4749 7.96892C23.3938 8.12336 22.5444 9.05 22.4672 10.2083C22.39 11.3666 23.2394 12.4477 24.3977 12.6794C24.9382 12.7566 25.4016 12.7566 25.9421 12.6794C26.6371 12.6021 26.5599 12.6021 26.7143 12.6021C26.7143 12.4477 26.7143 13.4515 26.7143 13.5288Z" fill="white"/>
<path id="P_00000030453191261145442400000007720003326171615877_" d="M15.9038 6.7334H18.066C19.6876 6.7334 21.0003 7.58282 21.0003 9.05C21.0003 9.8222 20.6915 10.3628 20.2281 10.7489C19.6876 11.2122 18.7609 11.4438 18.1432 11.4438H17.2165V13.6832H15.981L15.9038 6.7334ZM17.1393 7.8917V10.2855H17.9115C18.761 10.2855 19.7648 10.0539 19.7648 9.12723C19.7648 8.27781 18.9154 7.96892 17.9115 7.96892L17.1393 7.8917Z" fill="white"/>
<path id="E_00000166677638283382054500000000330054555463468193_" d="M14.8227 13.606H10.73V6.7334H14.8227V7.81449H11.9655V9.59055H14.7454V10.7489H11.9655V12.4477H14.8227V13.606Z" fill="white"/>
</g>
</svg>
