<svg width="20" height="20" viewBox="0 0 20 20" fill="none" xmlns="http://www.w3.org/2000/svg">
<path d="M10 1.26214e-06C8.02198 1.51163e-06 6.08839 0.586605 4.44379 1.68564C2.79919 2.78468 1.51745 4.34676 0.760722 6.17432C0.00399342 8.00187 -0.193738 10.0128 0.192522 11.9527C0.578781 13.8927 1.53168 15.6745 2.93071 17.0729C4.32973 18.4712 6.11205 19.4232 8.05219 19.8085C9.99233 20.1937 12.0032 19.995 13.8303 19.2373C15.6575 18.4797 17.2189 17.1972 18.3172 15.552C19.4154 13.9069 20.001 11.973 20 9.99498C20 8.682 19.7413 7.38188 19.2387 6.16891C18.7361 4.95593 17.9994 3.85386 17.0708 2.92567C16.1421 1.99749 15.0397 1.26137 13.8265 0.75937C12.6132 0.25737 11.313 -0.000658528 10 1.26214e-06ZM10.0452 18.7243C8.31872 18.7243 6.631 18.2123 5.19548 17.2531C3.75995 16.2939 2.6411 14.9306 1.9804 13.3355C1.3197 11.7405 1.14684 9.98529 1.48366 8.29197C1.82048 6.59866 2.65186 5.04325 3.87267 3.82244C5.09349 2.60163 6.64889 1.77024 8.34221 1.43342C10.0355 1.0966 11.7907 1.26947 13.3858 1.93017C14.9808 2.59086 16.3442 3.70972 17.3033 5.14524C18.2625 6.58077 18.7745 8.26849 18.7745 9.99498C18.7745 12.3093 17.8555 14.5288 16.2195 16.1657C14.5835 17.8027 12.3645 18.7229 10.0502 18.7243H10.0452Z" fill="white"/>
<path d="M10.0304 3.46582L3.57129 9.40755L5.51002 9.45778V13.2498H7.18757V9.47788L12.7627 9.54317V13.2498L14.4402 13.1795V9.40755H16.394L10.0304 3.46582ZM5.97712 8.63408L9.9952 4.80685L14.0133 8.63408H5.97712Z" fill="white"/>
<path d="M10.3876 16.0677C9.16616 16.1124 7.95283 15.8526 6.85685 15.3116C5.76087 14.7706 4.81667 13.9655 4.10931 12.9688C3.90997 13.0606 3.74138 13.208 3.62378 13.3933C3.50617 13.5787 3.44456 13.794 3.44633 14.0135C4.26446 15.0699 5.32287 15.9158 6.53362 16.481C7.74436 17.0462 9.07248 17.3143 10.4077 17.2631C11.529 17.2003 12.6257 16.9097 13.6309 16.4088C14.6361 15.9079 15.5286 15.2074 16.254 14.35C16.2588 14.1389 16.2014 13.9311 16.0888 13.7524C15.9763 13.5738 15.8136 13.4322 15.6211 13.3454C14.9886 14.141 14.1957 14.7946 13.2941 15.2636C12.3924 15.7326 11.4021 16.0066 10.3876 16.0677Z" fill="white"/>
</svg>
