<svg width="16" height="17" viewBox="0 0 16 17" fill="none" xmlns="http://www.w3.org/2000/svg">
<g id="Icon/ Missed Call">
<path id="Vector" d="M12.1675 2.3257C12.1457 2.32602 12.124 2.32775 12.1024 2.33091H10.1662C10.0999 2.32997 10.0342 2.34221 9.97267 2.36692C9.91119 2.39163 9.85523 2.42831 9.80804 2.47483C9.76086 2.52135 9.72339 2.57679 9.69782 2.63791C9.67224 2.69904 9.65907 2.76465 9.65907 2.83091C9.65907 2.89717 9.67224 2.96277 9.69782 3.0239C9.72339 3.08503 9.76086 3.14047 9.80804 3.18699C9.85523 3.23351 9.91119 3.27019 9.97267 3.2949C10.0342 3.3196 10.0999 3.33184 10.1662 3.33091H10.9208L7.98846 6.13885L4.84458 3.13625C4.7978 3.0877 4.74169 3.04912 4.67962 3.02282C4.61754 2.99651 4.55079 2.98303 4.48338 2.98319C4.41596 2.98334 4.34927 2.99712 4.28732 3.02371C4.22537 3.05029 4.16943 3.08913 4.12287 3.13788C4.07631 3.18664 4.04009 3.24431 4.01639 3.30742C3.99269 3.37053 3.98199 3.43778 3.98494 3.50513C3.98789 3.57248 4.00443 3.63854 4.03357 3.69934C4.0627 3.76013 4.10383 3.81441 4.15448 3.8589L7.64406 7.19224C7.73709 7.28109 7.86079 7.33067 7.98944 7.33067C8.11809 7.33067 8.24178 7.28109 8.33482 7.19224L11.6662 4.00213V4.83091C11.6653 4.89716 11.6775 4.96294 11.7022 5.02443C11.7269 5.08591 11.7636 5.14187 11.8101 5.18906C11.8566 5.23624 11.9121 5.27371 11.9732 5.29929C12.0343 5.32486 12.0999 5.33803 12.1662 5.33803C12.2325 5.33803 12.2981 5.32486 12.3592 5.29929C12.4203 5.27371 12.4758 5.23624 12.5223 5.18906C12.5688 5.14187 12.6055 5.08591 12.6302 5.02443C12.6549 4.96294 12.6671 4.89716 12.6662 4.83091V2.89862C12.6767 2.82722 12.6717 2.7544 12.6514 2.68515C12.6311 2.61589 12.596 2.55185 12.5487 2.49742C12.5013 2.44299 12.4427 2.39946 12.3769 2.36982C12.3111 2.34017 12.2397 2.32512 12.1675 2.3257ZM7.99953 8.33091C4.87808 8.33091 3.09079 9.22841 2.14732 10.0165C1.47357 10.5791 1.18784 11.4806 1.39992 12.3277L1.54901 12.9227C1.7801 13.8466 2.68479 14.45 3.62648 14.3088L5.05617 14.0946C5.67216 14.0023 6.16985 13.5351 6.30031 12.926V12.9253L6.58221 11.6102C6.596 11.546 6.63686 11.503 6.68963 11.4872C6.92862 11.4156 7.34766 11.3309 7.99953 11.3309C8.6514 11.3309 9.07044 11.4156 9.30942 11.4872C9.36232 11.503 9.40335 11.5463 9.41685 11.6096V11.6102L9.69875 12.926C9.82939 13.5348 10.3267 14.0023 10.9429 14.0946L12.3726 14.3088C13.3143 14.45 14.2193 13.8469 14.45 12.9227L14.5991 12.3277V12.327C14.8109 11.4801 14.5253 10.579 13.8517 10.0165C12.9083 9.22841 11.121 8.33091 7.99953 8.33091ZM7.99953 9.33091C10.9324 9.33091 12.4532 10.1502 13.2111 10.7834C13.5887 11.0987 13.7497 11.6025 13.6291 12.0842V12.0848L13.48 12.6805C13.372 13.1129 12.962 13.386 12.521 13.3198L11.0913 13.1056C10.8842 13.0746 10.7206 12.9215 10.6766 12.7163L10.3947 11.4012V11.4006C10.3074 10.9921 10.0054 10.6522 9.59653 10.5295C9.25685 10.4277 8.73833 10.3309 7.99953 10.3309C7.26073 10.3309 6.74221 10.4277 6.40252 10.5295C5.99329 10.6523 5.69189 10.9928 5.60435 11.4006L5.32245 12.7163C5.27871 12.9209 5.11488 13.0746 4.90773 13.1056L3.47804 13.3198C3.03707 13.386 2.6273 13.1133 2.51906 12.6805L2.36997 12.0848V12.0842C2.24939 11.6026 2.41035 11.0987 2.78794 10.7834C3.5459 10.1502 5.0667 9.33091 7.99953 9.33091Z" fill="#71717A"/>
</g>
</svg>
