<svg width="24" height="24" viewBox="0 0 24 24" fill="none" xmlns="http://www.w3.org/2000/svg">
<g id="Mute Unmute">
<path id="Vector" d="M12 1C9.52 1 7.49999 3.02 7.49999 5.5V13C7.49999 13.105 7.50476 13.2096 7.50976 13.3096L8.24999 12.5703V12.5693L8.87499 11.9453L15 5.82031V5.81934L15.7246 5.09473L16.375 4.44531C15.9 2.47031 14.115 1 12 1ZM21.2353 1.99316C21.0406 1.99884 20.8556 2.0801 20.7197 2.21973L2.21972 20.7197C2.14774 20.7888 2.09028 20.8716 2.05069 20.9632C2.0111 21.0548 1.99019 21.1534 1.98917 21.2532C1.98816 21.3529 2.00706 21.4519 2.04478 21.5443C2.0825 21.6367 2.13827 21.7206 2.20883 21.7912C2.27939 21.8617 2.36331 21.9175 2.4557 21.9552C2.54808 21.9929 2.64706 22.0118 2.74684 22.0108C2.84662 22.0098 2.94519 21.9889 3.03679 21.9493C3.12838 21.9097 3.21116 21.8523 3.28027 21.7803L6.73339 18.3271C7.92039 19.5034 9.4978 20.2817 11.25 20.457V22.75C11.2486 22.8494 11.267 22.9481 11.304 23.0403C11.3411 23.1325 11.3961 23.2164 11.4659 23.2872C11.5357 23.358 11.6188 23.4142 11.7105 23.4526C11.8022 23.4909 11.9006 23.5107 12 23.5107C12.0994 23.5107 12.1978 23.4909 12.2895 23.4526C12.3812 23.4142 12.4643 23.358 12.5341 23.2872C12.6039 23.2164 12.6589 23.1325 12.696 23.0403C12.733 22.9481 12.7514 22.8494 12.75 22.75V20.4619C16.5342 20.0842 19.5 16.8818 19.5 13V11.25C19.5 10.835 19.165 10.5 18.75 10.5C18.335 10.5 18 10.835 18 11.25V13C18 16.28 15.3576 18.947 12.0889 18.9951C12.0804 18.994 12.072 18.993 12.0635 18.9922C12.0385 18.99 12.0134 18.989 11.9883 18.9893C11.9631 18.9896 11.938 18.9913 11.9131 18.9941C11.9118 18.9945 11.9105 18.9948 11.9092 18.9951C11.9088 18.9951 11.9085 18.9951 11.9082 18.9951C10.305 18.9707 8.85384 18.3169 7.79296 17.2676L8.85644 16.2041C9.66888 17.0014 10.7749 17.5 12 17.5C14.48 17.5 16.5 15.48 16.5 13V8.56055L21.7803 3.28027C21.8885 3.1749 21.9623 3.03931 21.9922 2.89126C22.0221 2.7432 22.0065 2.58958 21.9477 2.4505C21.8888 2.31141 21.7893 2.19335 21.6622 2.11175C21.5351 2.03015 21.3863 1.98882 21.2353 1.99316ZM5.24999 10.5C4.83499 10.5 4.49999 10.835 4.49999 11.25V13C4.49999 13.985 4.69015 14.9252 5.03515 15.7852L6.21972 14.5996C6.07472 14.0896 5.99999 13.555 5.99999 13V11.25C5.99999 10.835 5.66499 10.5 5.24999 10.5Z" fill="white"/>
</g>
</svg>
