<svg width="20" height="21" viewBox="0 0 20 21" fill="none" xmlns="http://www.w3.org/2000/svg">
<g id="Icon/ Navigation - Filled">
<path id="Vector" d="M9.99984 1.91357C5.40484 1.91357 1.6665 5.65191 1.6665 10.2469C1.6665 14.8419 5.40484 18.5802 9.99984 18.5802C14.5948 18.5802 18.3332 14.8419 18.3332 10.2469C18.3332 5.65191 14.5948 1.91357 9.99984 1.91357ZM13.0728 8.20774L10.994 13.6877C10.8753 14.0011 10.5748 14.2069 10.2403 14.2052C10.0244 14.204 9.82359 14.1165 9.67734 13.9702C9.59692 13.8898 9.53275 13.7915 9.4915 13.6798L8.7065 11.5402L6.56692 10.7552C6.25234 10.639 6.04359 10.3411 6.0415 10.0069C6.03984 9.67232 6.24609 9.37191 6.559 9.25316L12.039 7.17441C12.334 7.06274 12.6669 7.13399 12.8903 7.35691C13.1132 7.57982 13.1844 7.91274 13.0728 8.20774Z" fill="#0786FD"/>
</g>
</svg>
