<svg width="16" height="17" viewBox="0 0 16 17" fill="none" xmlns="http://www.w3.org/2000/svg">
<g id="Icon/ Outgoing Call">
<path id="Vector" d="M12.1616 1.65918C12.0621 1.6592 11.9649 1.68892 11.8823 1.74451C11.7998 1.80011 11.7358 1.87907 11.6984 1.97128C11.661 2.06349 11.6519 2.16476 11.6724 2.26214C11.6929 2.35951 11.7419 2.44857 11.8133 2.5179L12.9598 3.66439H9.16683C9.10057 3.66345 9.03479 3.67569 8.97331 3.7004C8.91182 3.72511 8.85586 3.76179 8.80868 3.80831C8.76149 3.85483 8.72402 3.91027 8.69845 3.9714C8.67288 4.03252 8.65971 4.09813 8.65971 4.16439C8.65971 4.23065 8.67288 4.29625 8.69845 4.35738C8.72402 4.41851 8.76149 4.47395 8.80868 4.52047C8.85586 4.56699 8.91182 4.60367 8.97331 4.62838C9.03479 4.65308 9.10057 4.66533 9.16683 4.66439H12.9598L11.8133 5.81087C11.7653 5.85695 11.727 5.91213 11.7006 5.97319C11.6742 6.03426 11.6603 6.09997 11.6596 6.16649C11.6589 6.23301 11.6715 6.299 11.6967 6.36059C11.7218 6.42217 11.759 6.47813 11.8061 6.52517C11.8531 6.5722 11.909 6.60938 11.9706 6.63453C12.0322 6.65967 12.0982 6.67228 12.1647 6.6716C12.2312 6.67092 12.297 6.65698 12.358 6.63059C12.4191 6.6042 12.4743 6.56589 12.5203 6.5179L14.5203 4.5179C14.6141 4.42413 14.6667 4.29697 14.6667 4.16439C14.6667 4.0318 14.6141 3.90464 14.5203 3.81087L12.5203 1.81087C12.4737 1.76288 12.418 1.72472 12.3564 1.69867C12.2947 1.67261 12.2285 1.65918 12.1616 1.65918ZM4.6805 1.66895C4.46108 1.65298 4.23625 1.67541 4.01579 1.74056H4.01514L3.22672 1.97428C2.38591 2.22295 1.72894 2.89008 1.50667 3.7321C1.01315 5.60468 1.57772 7.82115 3.04704 10.3161C4.51429 12.8076 6.18617 14.391 8.07438 14.9079C8.92471 15.1406 9.84175 14.9183 10.4858 14.32L11.0861 13.7633C11.7578 13.1397 11.8579 12.101 11.3153 11.363L10.4481 10.1852C9.98323 9.55384 9.16382 9.28503 8.41032 9.51139L7.05355 9.91764C6.9966 9.93427 6.8603 9.85671 6.7417 9.75423L6.74105 9.75358C6.5298 9.56989 6.23712 9.19863 5.92399 8.66764V8.66699C5.58823 8.09675 5.44503 7.72381 5.38753 7.50358C5.33001 7.28325 5.34397 7.25644 5.35238 7.18197C5.35675 7.1448 5.3744 7.11037 5.40446 7.08301L5.40511 7.08236L6.41683 6.15723C6.99646 5.62734 7.17144 4.78056 6.84456 4.06803L6.23389 2.7373V2.73665C5.94668 2.11062 5.33858 1.71682 4.6805 1.66895ZM4.60824 2.66634C4.9143 2.68921 5.19614 2.87279 5.32503 3.15397L5.93506 4.4847C6.08284 4.80684 6.00873 5.17548 5.7417 5.4196L4.73063 6.34408C4.52323 6.53318 4.39059 6.79101 4.35889 7.06934V7.06999C4.35063 7.14318 4.33111 7.41535 4.42008 7.75619C4.50906 8.09702 4.69277 8.54782 5.06201 9.1748H5.06266C5.40719 9.75914 5.73281 10.2031 6.08545 10.5094H6.0861C6.20062 10.6086 6.68059 11.0686 7.3335 10.8779L7.33545 10.8773L8.69808 10.4691C9.05192 10.3628 9.43025 10.4897 9.64274 10.7783L10.5099 11.9561C10.7555 12.2906 10.7126 12.7454 10.4058 13.0303L9.8055 13.5876C9.42161 13.9443 8.85155 14.0836 8.33805 13.943C6.8116 13.5252 5.3011 12.1728 3.90902 9.80892C2.515 7.44185 2.07899 5.48406 2.47347 3.9873C2.60387 3.49332 3.0034 3.08327 3.51058 2.93327L4.29899 2.69954C4.40169 2.66919 4.50621 2.65872 4.60824 2.66634Z" fill="#71717A"/>
</g>
</svg>
