<svg width="28" height="28" viewBox="0 0 28 28" fill="none" xmlns="http://www.w3.org/2000/svg">
<g id="Group 15">
<path id="Vector" d="M24.3705 27.3334H3.62971C1.99341 27.3334 0.666748 26.0067 0.666748 24.3705V3.62971C0.666748 1.99341 1.99341 0.666748 3.62971 0.666748H24.3705C26.0067 0.666748 27.3334 1.99341 27.3334 3.62971V24.3705C27.3334 26.0067 26.0067 27.3334 24.3705 27.3334Z" fill="#B30B00"/>
<path id="Vector_2" d="M22.3267 16.0735C21.0733 14.772 17.6496 15.3024 16.8304 15.3987C15.6252 14.2417 14.8052 12.8432 14.5163 12.3609C14.9504 11.0595 15.2392 9.75724 15.2874 8.35946C15.2874 7.15427 14.8052 5.85205 13.4555 5.85205C12.9733 5.85205 12.5392 6.14168 12.2985 6.52687C11.72 7.53946 11.9607 9.56464 12.877 11.6372C12.3466 13.1321 11.8644 14.578 10.5148 17.1335C9.11628 17.7121 6.17554 19.0624 5.9348 20.5083C5.8385 20.9424 5.98295 21.3765 6.32072 21.7135C6.65776 22.0039 7.09109 22.1483 7.52517 22.1483C9.30887 22.1483 11.0444 19.6891 12.2504 17.6165C13.2629 17.2787 14.8541 16.7965 16.4452 16.5076C18.3252 18.1469 19.9644 18.3876 20.8326 18.3876C21.9896 18.3876 22.4237 17.9054 22.5681 17.4713C22.8089 16.9898 22.6644 16.4595 22.3267 16.0735ZM21.1215 16.8928C21.0733 17.2306 20.6392 17.5676 19.8681 17.375C18.9518 17.1343 18.1326 16.7002 17.4089 16.1217C18.0355 16.0254 19.4341 15.8809 20.4466 16.0735C20.8326 16.1698 21.2178 16.4106 21.1215 16.8928ZM13.0696 6.96094C13.1659 6.8165 13.3104 6.7202 13.4555 6.7202C13.8896 6.7202 13.9859 7.25057 13.9859 7.68464C13.9378 8.69724 13.7452 9.70983 13.4074 10.6743C12.6844 8.74464 12.8289 7.39501 13.0696 6.96094ZM12.9733 16.3143C13.3592 15.5432 13.8896 14.1928 14.0822 13.6143C14.5163 14.3372 15.2392 15.2054 15.6252 15.5913C15.6252 15.6395 14.1304 15.9291 12.9733 16.3143ZM10.1289 18.2432C9.01998 20.075 7.86295 21.2328 7.23628 21.2328C7.13998 21.2328 7.04369 21.1846 6.94665 21.1365C6.8022 21.0402 6.75406 20.8958 6.8022 20.7024C6.94665 20.0269 8.19998 19.1106 10.1289 18.2432Z" fill="white"/>
</g>
</svg>
