<svg width="20" height="20" viewBox="0 0 20 20" fill="none" xmlns="http://www.w3.org/2000/svg">
<g id="Icon/ Plus">
<path id="Vector" d="M9.99002 2.07439C9.8244 2.07697 9.66658 2.14519 9.55123 2.26406C9.43587 2.38292 9.37241 2.54272 9.37479 2.70834V9.375H2.70812C2.6253 9.37383 2.54307 9.38913 2.46622 9.42002C2.38936 9.4509 2.31941 9.49675 2.26043 9.55491C2.20145 9.61306 2.15462 9.68235 2.12265 9.75876C2.09068 9.83517 2.07422 9.91718 2.07422 10C2.07422 10.0828 2.09068 10.1648 2.12265 10.2412C2.15462 10.3177 2.20145 10.387 2.26043 10.4451C2.31941 10.5033 2.38936 10.5491 2.46622 10.58C2.54307 10.6109 2.6253 10.6262 2.70812 10.625H9.37479V17.2917C9.37362 17.3745 9.38892 17.4567 9.4198 17.5336C9.45068 17.6104 9.49653 17.6804 9.55469 17.7394C9.61284 17.7983 9.68213 17.8452 9.75855 17.8771C9.83496 17.9091 9.91696 17.9256 9.99979 17.9256C10.0826 17.9256 10.1646 17.9091 10.241 17.8771C10.3174 17.8452 10.3867 17.7983 10.4449 17.7394C10.503 17.6804 10.5489 17.6104 10.5798 17.5336C10.6107 17.4567 10.626 17.3745 10.6248 17.2917V10.625H17.2915C17.3743 10.6262 17.4565 10.6109 17.5334 10.58C17.6102 10.5491 17.6802 10.5033 17.7391 10.4451C17.7981 10.387 17.845 10.3177 17.8769 10.2412C17.9089 10.1648 17.9254 10.0828 17.9254 10C17.9254 9.91718 17.9089 9.83517 17.8769 9.75876C17.845 9.68235 17.7981 9.61306 17.7391 9.55491C17.6802 9.49675 17.6102 9.4509 17.5334 9.42002C17.4565 9.38913 17.3743 9.37383 17.2915 9.375H10.6248V2.70834C10.626 2.62469 10.6104 2.54164 10.5789 2.46413C10.5474 2.38662 10.5007 2.31622 10.4415 2.2571C10.3823 2.19798 10.3118 2.15135 10.2343 2.11996C10.1567 2.08858 10.0737 2.07308 9.99002 2.07439Z" fill="#18181B"/>
</g>
</svg>
