<svg width="20" height="20" viewBox="0 0 20 20" fill="none" xmlns="http://www.w3.org/2000/svg">
<g id="Icon/ Plus">
<g id="Vector">
<mask id="path-1-inside-1_2590_3658" fill="white">
<path d="M9.99984 1.66669C5.40486 1.66669 1.6665 5.40505 1.6665 10C1.6665 14.595 5.40486 18.3334 9.99984 18.3334C14.5948 18.3334 18.3332 14.595 18.3332 10C18.3332 5.40505 14.5948 1.66669 9.99984 1.66669ZM9.99984 2.91669C13.9193 2.91669 17.0832 6.0806 17.0832 10C17.0832 13.9194 13.9193 17.0834 9.99984 17.0834C6.08041 17.0834 2.9165 13.9194 2.9165 10C2.9165 6.0806 6.08041 2.91669 9.99984 2.91669ZM9.99007 5.8244C9.82445 5.82699 9.66663 5.89521 9.55128 6.01407C9.43592 6.13294 9.37246 6.29273 9.37484 6.45835V9.37502H6.45817C6.37535 9.37385 6.29312 9.38915 6.21627 9.42003C6.13941 9.45092 6.06946 9.49677 6.01048 9.55492C5.9515 9.61307 5.90467 9.68237 5.8727 9.75878C5.84073 9.83519 5.82427 9.91719 5.82427 10C5.82427 10.0828 5.84073 10.1649 5.8727 10.2413C5.90467 10.3177 5.9515 10.387 6.01048 10.4451C6.06946 10.5033 6.13941 10.5491 6.21627 10.58C6.29312 10.6109 6.37535 10.6262 6.45817 10.625H9.37484V13.5417C9.37367 13.6245 9.38897 13.7067 9.41985 13.7836C9.45073 13.8604 9.49659 13.9304 9.55474 13.9894C9.61289 14.0484 9.68219 14.0952 9.7586 14.1272C9.83501 14.1591 9.91701 14.1756 9.99984 14.1756C10.0827 14.1756 10.1647 14.1591 10.2411 14.1272C10.3175 14.0952 10.3868 14.0484 10.4449 13.9894C10.5031 13.9304 10.5489 13.8604 10.5798 13.7836C10.6107 13.7067 10.626 13.6245 10.6248 13.5417V10.625H13.5415C13.6243 10.6262 13.7066 10.6109 13.7834 10.58C13.8603 10.5491 13.9302 10.5033 13.9892 10.4451C14.0482 10.387 14.095 10.3177 14.127 10.2413C14.1589 10.1649 14.1754 10.0828 14.1754 10C14.1754 9.91719 14.1589 9.83519 14.127 9.75878C14.095 9.68237 14.0482 9.61307 13.9892 9.55492C13.9302 9.49677 13.8603 9.45092 13.7834 9.42003C13.7066 9.38915 13.6243 9.37385 13.5415 9.37502H10.6248V6.45835C10.626 6.3747 10.6104 6.29166 10.5789 6.21415C10.5475 6.13664 10.5007 6.06624 10.4415 6.00712C10.3823 5.948 10.3119 5.90137 10.2343 5.86998C10.1568 5.83859 10.0737 5.82309 9.99007 5.8244Z"/>
</mask>
<path d="M9.99007 5.8244L10.0108 7.15424L10.0109 7.15424L9.99007 5.8244ZM9.37484 6.45835H10.7048V6.44882L10.7047 6.43928L9.37484 6.45835ZM9.37484 9.37502V10.705H10.7048V9.37502H9.37484ZM6.45817 9.37502L6.43936 10.7049L6.44877 10.705H6.45817V9.37502ZM6.45817 10.625V9.29502H6.44877L6.43936 9.29515L6.45817 10.625ZM9.37484 10.625H10.7048V9.29502H9.37484V10.625ZM9.37484 13.5417L10.7047 13.5605L10.7048 13.5511V13.5417H9.37484ZM10.6248 13.5417H9.29484V13.5511L9.29497 13.5605L10.6248 13.5417ZM10.6248 10.625V9.29502H9.29484V10.625H10.6248ZM13.5415 10.625L13.5603 9.29515L13.5509 9.29502H13.5415V10.625ZM13.5415 9.37502V10.705H13.5509L13.5603 10.7049L13.5415 9.37502ZM10.6248 9.37502H9.29484V10.705H10.6248V9.37502ZM10.6248 6.45835L9.29497 6.43928L9.29484 6.44882V6.45835H10.6248ZM9.99984 0.336687C4.67033 0.336687 0.336504 4.67051 0.336504 10H2.9965C2.9965 6.13959 6.1394 2.99669 9.99984 2.99669V0.336687ZM0.336504 10C0.336504 15.3295 4.67033 19.6634 9.99984 19.6634V17.0034C6.1394 17.0034 2.9965 13.8605 2.9965 10H0.336504ZM9.99984 19.6634C15.3293 19.6634 19.6632 15.3295 19.6632 10H17.0032C17.0032 13.8605 13.8603 17.0034 9.99984 17.0034V19.6634ZM19.6632 10C19.6632 4.67051 15.3293 0.336687 9.99984 0.336687V2.99669C13.8603 2.99669 17.0032 6.13959 17.0032 10H19.6632ZM9.99984 4.24669C13.1847 4.24669 15.7532 6.81514 15.7532 10H18.4132C18.4132 5.34606 14.6538 1.58669 9.99984 1.58669V4.24669ZM15.7532 10C15.7532 13.1849 13.1847 15.7534 9.99984 15.7534V18.4134C14.6538 18.4134 18.4132 14.654 18.4132 10H15.7532ZM9.99984 15.7534C6.81495 15.7534 4.2465 13.1849 4.2465 10H1.5865C1.5865 14.654 5.34588 18.4134 9.99984 18.4134V15.7534ZM4.2465 10C4.2465 6.81514 6.81495 4.24669 9.99984 4.24669V1.58669C5.34588 1.58669 1.5865 5.34606 1.5865 10H4.2465ZM9.9693 4.49456C9.45128 4.50266 8.95765 4.71603 8.59684 5.08782L10.5057 6.94033C10.3756 7.07439 10.1976 7.15132 10.0108 7.15424L9.9693 4.49456ZM8.59684 5.08782C8.23603 5.4596 8.03754 5.9594 8.04497 6.47743L10.7047 6.43928C10.7074 6.62606 10.6358 6.80628 10.5057 6.94033L8.59684 5.08782ZM8.04484 6.45835V9.37502H10.7048V6.45835H8.04484ZM9.37484 8.04502H6.45817V10.705H9.37484V8.04502ZM6.47698 8.04515C6.21793 8.04149 5.96074 8.08935 5.72036 8.18595L6.71218 10.6541C6.6255 10.689 6.53277 10.7062 6.43936 10.7049L6.47698 8.04515ZM5.72036 8.18595C5.47997 8.28254 5.26118 8.42595 5.0767 8.60784L6.94426 10.502C6.87774 10.5676 6.79885 10.6193 6.71218 10.6541L5.72036 8.18595ZM5.0767 8.60784C4.89222 8.78973 4.74573 9.00647 4.64575 9.24547L7.09965 10.2721C7.0636 10.3583 7.01078 10.4364 6.94426 10.502L5.0767 8.60784ZM4.64575 9.24547C4.54576 9.48447 4.49427 9.74095 4.49427 10H7.15427C7.15427 10.0934 7.1357 10.1859 7.09965 10.2721L4.64575 9.24547ZM4.49427 10C4.49427 10.2591 4.54576 10.5156 4.64575 10.7546L7.09965 9.72795C7.1357 9.81413 7.15427 9.90661 7.15427 10H4.49427ZM4.64575 10.7546C4.74573 10.9936 4.89222 11.2103 5.0767 11.3922L6.94426 9.49804C7.01078 9.56362 7.0636 9.64177 7.09965 9.72795L4.64575 10.7546ZM5.0767 11.3922C5.26118 11.5741 5.47997 11.7175 5.72036 11.8141L6.71218 9.34592C6.79885 9.38075 6.87774 9.43246 6.94426 9.49804L5.0767 11.3922ZM5.72036 11.8141C5.96074 11.9107 6.21793 11.9586 6.47698 11.9549L6.43936 9.29515C6.53277 9.29383 6.6255 9.31109 6.71218 9.34592L5.72036 11.8141ZM6.45817 11.955H9.37484V9.29502H6.45817V11.955ZM8.04484 10.625V13.5417H10.7048V10.625H8.04484ZM8.04497 13.5229C8.04131 13.7819 8.08917 14.0391 8.18576 14.2795L10.6539 13.2877C10.6888 13.3744 10.706 13.4671 10.7047 13.5605L8.04497 13.5229ZM8.18576 14.2795C8.28236 14.5199 8.42578 14.7387 8.60766 14.9232L10.5018 13.0556C10.5674 13.1221 10.6191 13.201 10.6539 13.2877L8.18576 14.2795ZM8.60766 14.9232C8.78955 15.1076 9.00628 15.2541 9.24529 15.3541L10.2719 12.9002C10.3581 12.9363 10.4362 12.9891 10.5018 13.0556L8.60766 14.9232ZM9.24529 15.3541C9.48428 15.4541 9.74077 15.5056 9.99984 15.5056V12.8456C10.0932 12.8456 10.1857 12.8642 10.2719 12.9002L9.24529 15.3541ZM9.99984 15.5056C10.2589 15.5056 10.5154 15.4541 10.7544 15.3541L9.72777 12.9002C9.81395 12.8642 9.90643 12.8456 9.99984 12.8456V15.5056ZM10.7544 15.3541C10.9934 15.2541 11.2101 15.1076 11.392 14.9232L9.49786 13.0556C9.56344 12.9891 9.64159 12.9363 9.72777 12.9002L10.7544 15.3541ZM11.392 14.9232C11.5739 14.7387 11.7173 14.5199 11.8139 14.2795L9.34574 13.2877C9.38057 13.201 9.43228 13.1221 9.49786 13.0556L11.392 14.9232ZM11.8139 14.2795C11.9105 14.0391 11.9584 13.7819 11.9547 13.5229L9.29497 13.5605C9.29365 13.4671 9.31091 13.3744 9.34574 13.2877L11.8139 14.2795ZM11.9548 13.5417V10.625H9.29484V13.5417H11.9548ZM10.6248 11.955H13.5415V9.29502H10.6248V11.955ZM13.5227 11.9549C13.7817 11.9586 14.0389 11.9107 14.2793 11.8141L13.2875 9.34592C13.3742 9.31109 13.4669 9.29383 13.5603 9.29515L13.5227 11.9549ZM14.2793 11.8141C14.5197 11.7175 14.7385 11.5741 14.923 11.3922L13.0554 9.49804C13.1219 9.43246 13.2008 9.38075 13.2875 9.34592L14.2793 11.8141ZM14.923 11.3922C15.1074 11.2103 15.2539 10.9936 15.3539 10.7546L12.9 9.72795C12.9361 9.64177 12.9889 9.56362 13.0554 9.49804L14.923 11.3922ZM15.3539 10.7546C15.4539 10.5156 15.5054 10.2591 15.5054 10H12.8454C12.8454 9.90661 12.864 9.81413 12.9 9.72795L15.3539 10.7546ZM15.5054 10C15.5054 9.74095 15.4539 9.48447 15.3539 9.24547L12.9 10.2721C12.864 10.1859 12.8454 10.0934 12.8454 10H15.5054ZM15.3539 9.24547C15.2539 9.00647 15.1074 8.78973 14.923 8.60784L13.0554 10.502C12.9889 10.4364 12.9361 10.3583 12.9 10.2721L15.3539 9.24547ZM14.923 8.60784C14.7385 8.42596 14.5197 8.28255 14.2793 8.18595L13.2875 10.6541C13.2008 10.6193 13.1219 10.5676 13.0554 10.502L14.923 8.60784ZM14.2793 8.18595C14.0389 8.08935 13.7817 8.04149 13.5227 8.04515L13.5603 10.7049C13.4669 10.7062 13.3742 10.689 13.2875 10.6541L14.2793 8.18595ZM13.5415 8.04502H10.6248V10.705H13.5415V8.04502ZM11.9548 9.37502V6.45835H9.29484V9.37502H11.9548ZM11.9547 6.47743C11.9585 6.21578 11.9096 5.95604 11.8112 5.71361L9.34673 6.71469C9.31122 6.62728 9.29362 6.53362 9.29497 6.43928L11.9547 6.47743ZM11.8112 5.71361C11.7127 5.47118 11.5665 5.25098 11.3814 5.06606L9.50169 6.94817C9.43493 6.8815 9.38224 6.8021 9.34673 6.71469L11.8112 5.71361ZM11.3814 5.06606C11.1962 4.88115 10.9759 4.73529 10.7333 4.63712L9.73538 7.10284C9.64792 7.06744 9.56845 7.01485 9.50169 6.94817L11.3814 5.06606ZM10.7333 4.63712C10.4907 4.53895 10.2309 4.49048 9.96929 4.49456L10.0109 7.15424C9.91651 7.15571 9.82284 7.13823 9.73538 7.10284L10.7333 4.63712Z" fill="#71717A" mask="url(#path-1-inside-1_2590_3658)"/>
</g>
</g>
</svg>
