<svg width="16" height="17" viewBox="0 0 16 17" fill="none" xmlns="http://www.w3.org/2000/svg">
<g id="Icon/ Schedule" clip-path="url(#clip0_2590_5286)">
<path id="Vector" d="M3.83333 0.331055C1.72216 0.331055 0 2.05322 0 4.16439C0 6.27556 1.72216 7.99772 3.83333 7.99772C5.9445 7.99772 7.66667 6.27556 7.66667 4.16439C7.66667 2.05322 5.9445 0.331055 3.83333 0.331055ZM3.83333 1.33105C5.40406 1.33105 6.66667 2.59366 6.66667 4.16439C6.66667 5.73512 5.40406 6.99772 3.83333 6.99772C2.2626 6.99772 1 5.73512 1 4.16439C1 2.59366 2.2626 1.33105 3.83333 1.33105ZM3.82552 1.99056C3.69303 1.99263 3.56677 2.0472 3.47449 2.1423C3.3822 2.23739 3.33143 2.36522 3.33333 2.49772V4.16439C3.33336 4.29699 3.38605 4.42415 3.47982 4.5179L4.14648 5.18457C4.19256 5.23256 4.24774 5.27087 4.30881 5.29726C4.36987 5.32365 4.43559 5.33759 4.50211 5.33827C4.56862 5.33894 4.63461 5.32634 4.6962 5.3012C4.75779 5.27605 4.81374 5.23887 4.86078 5.19183C4.90782 5.14479 4.945 5.08884 4.97014 5.02725C4.99529 4.96567 5.00789 4.89968 5.00721 4.83316C5.00654 4.76664 4.99259 4.70092 4.9662 4.63986C4.93981 4.5788 4.9015 4.52361 4.85352 4.47754L4.33333 3.95736V2.49772C4.33429 2.4308 4.32181 2.36437 4.29662 2.30236C4.27143 2.24035 4.23405 2.18403 4.1867 2.13673C4.13934 2.08944 4.08297 2.05213 4.02093 2.02702C3.95889 2.00191 3.89244 1.98951 3.82552 1.99056ZM7.9401 2.33105C8.08144 2.64705 8.18792 2.98172 8.25326 3.33105H11.8333C12.4767 3.33105 13 3.85439 13 4.49772V4.99772H8.25326C8.18759 5.34705 8.0811 5.68172 7.9401 5.99772H13V12.1644C13 12.8077 12.4767 13.3311 11.8333 13.3311H4.16667C3.52333 13.3311 3 12.8077 3 12.1644V8.58431C2.65067 8.51864 2.316 8.41216 2 8.27116V12.1644C2 13.3591 2.972 14.3311 4.16667 14.3311H11.8333C13.028 14.3311 14 13.3591 14 12.1644V4.49772C14 3.30305 13.028 2.33105 11.8333 2.33105H7.9401ZM8 7.33105C7.77899 7.33105 7.56702 7.41885 7.41074 7.57513C7.25446 7.73141 7.16667 7.94337 7.16667 8.16439C7.16667 8.3854 7.25446 8.59736 7.41074 8.75364C7.56702 8.90992 7.77899 8.99772 8 8.99772C8.22101 8.99772 8.43298 8.90992 8.58926 8.75364C8.74554 8.59736 8.83333 8.3854 8.83333 8.16439C8.83333 7.94337 8.74554 7.73141 8.58926 7.57513C8.43298 7.41885 8.22101 7.33105 8 7.33105ZM10.8333 7.33105C10.6123 7.33105 10.4004 7.41885 10.2441 7.57513C10.0878 7.73141 10 7.94337 10 8.16439C10 8.3854 10.0878 8.59736 10.2441 8.75364C10.4004 8.90992 10.6123 8.99772 10.8333 8.99772C11.0543 8.99772 11.2663 8.90992 11.4226 8.75364C11.5789 8.59736 11.6667 8.3854 11.6667 8.16439C11.6667 7.94337 11.5789 7.73141 11.4226 7.57513C11.2663 7.41885 11.0543 7.33105 10.8333 7.33105ZM5.16667 10.3311C4.94565 10.3311 4.73369 10.4189 4.57741 10.5751C4.42113 10.7314 4.33333 10.9434 4.33333 11.1644C4.33333 11.3854 4.42113 11.5974 4.57741 11.7536C4.73369 11.9099 4.94565 11.9977 5.16667 11.9977C5.38768 11.9977 5.59964 11.9099 5.75592 11.7536C5.9122 11.5974 6 11.3854 6 11.1644C6 10.9434 5.9122 10.7314 5.75592 10.5751C5.59964 10.4189 5.38768 10.3311 5.16667 10.3311ZM8 10.3311C7.77899 10.3311 7.56702 10.4189 7.41074 10.5751C7.25446 10.7314 7.16667 10.9434 7.16667 11.1644C7.16667 11.3854 7.25446 11.5974 7.41074 11.7536C7.56702 11.9099 7.77899 11.9977 8 11.9977C8.22101 11.9977 8.43298 11.9099 8.58926 11.7536C8.74554 11.5974 8.83333 11.3854 8.83333 11.1644C8.83333 10.9434 8.74554 10.7314 8.58926 10.5751C8.43298 10.4189 8.22101 10.3311 8 10.3311Z" fill="#71717A"/>
</g>
<defs>
<clipPath id="clip0_2590_5286">
<rect width="16" height="16" fill="white" transform="translate(0 0.331055)"/>
</clipPath>
</defs>
</svg>
