<svg width="20" height="20" viewBox="0 0 20 20" fill="none" xmlns="http://www.w3.org/2000/svg">
<g id="Icon/ Search">
<g id="Vector">
<mask id="path-1-inside-1_2583_361" fill="white">
<path d="M8.54167 2.5C5.21235 2.5 2.5 5.21235 2.5 8.54167C2.5 11.871 5.21235 14.5833 8.54167 14.5833C9.98182 14.5833 11.3057 14.0746 12.3454 13.2292L16.4331 17.3169C16.4907 17.3769 16.5597 17.4248 16.636 17.4578C16.7123 17.4907 16.7945 17.5082 16.8776 17.509C16.9608 17.5099 17.0433 17.4941 17.1202 17.4627C17.1972 17.4312 17.2672 17.3848 17.326 17.326C17.3848 17.2672 17.4312 17.1972 17.4627 17.1202C17.4941 17.0433 17.5099 16.9608 17.509 16.8776C17.5082 16.7945 17.4907 16.7123 17.4578 16.636C17.4248 16.5597 17.3769 16.4907 17.3169 16.4331L13.2292 12.3454C14.0746 11.3057 14.5833 9.98182 14.5833 8.54167C14.5833 5.21235 11.871 2.5 8.54167 2.5ZM8.54167 3.75C11.1954 3.75 13.3333 5.8879 13.3333 8.54167C13.3333 9.83442 12.8234 11.0024 11.9963 11.8628C11.9453 11.9003 11.9003 11.9453 11.8628 11.9963C11.0024 12.8234 9.83442 13.3333 8.54167 13.3333C5.8879 13.3333 3.75 11.1954 3.75 8.54167C3.75 5.8879 5.8879 3.75 8.54167 3.75Z"/>
</mask>
<path d="M8.54167 2.5C5.21235 2.5 2.5 5.21235 2.5 8.54167C2.5 11.871 5.21235 14.5833 8.54167 14.5833C9.98182 14.5833 11.3057 14.0746 12.3454 13.2292L16.4331 17.3169C16.4907 17.3769 16.5597 17.4248 16.636 17.4578C16.7123 17.4907 16.7945 17.5082 16.8776 17.509C16.9608 17.5099 17.0433 17.4941 17.1202 17.4627C17.1972 17.4312 17.2672 17.3848 17.326 17.326C17.3848 17.2672 17.4312 17.1972 17.4627 17.1202C17.4941 17.0433 17.5099 16.9608 17.509 16.8776C17.5082 16.7945 17.4907 16.7123 17.4578 16.636C17.4248 16.5597 17.3769 16.4907 17.3169 16.4331L13.2292 12.3454C14.0746 11.3057 14.5833 9.98182 14.5833 8.54167C14.5833 5.21235 11.871 2.5 8.54167 2.5ZM8.54167 3.75C11.1954 3.75 13.3333 5.8879 13.3333 8.54167C13.3333 9.83442 12.8234 11.0024 11.9963 11.8628C11.9453 11.9003 11.9003 11.9453 11.8628 11.9963C11.0024 12.8234 9.83442 13.3333 8.54167 13.3333C5.8879 13.3333 3.75 11.1954 3.75 8.54167C3.75 5.8879 5.8879 3.75 8.54167 3.75Z" fill="#18181B"/>
<path d="M12.3454 13.2292L13.2858 12.2887L12.4373 11.4402L11.5063 12.1973L12.3454 13.2292ZM16.4331 17.3169L17.3925 16.3958L17.3831 16.386L17.3736 16.3764L16.4331 17.3169ZM17.3169 16.4331L16.3764 17.3736L16.386 17.3831L16.3958 17.3925L17.3169 16.4331ZM13.2292 12.3454L12.1973 11.5063L11.4402 12.4373L12.2887 13.2858L13.2292 12.3454ZM11.9963 11.8628L12.7839 12.9345L12.8759 12.8668L12.9551 12.7845L11.9963 11.8628ZM11.8628 11.9963L12.7845 12.9551L12.8668 12.8759L12.9345 12.7839L11.8628 11.9963ZM8.54167 1.17C4.47781 1.17 1.17 4.47781 1.17 8.54167H3.83C3.83 5.94689 5.94689 3.83 8.54167 3.83V1.17ZM1.17 8.54167C1.17 12.6055 4.47781 15.9133 8.54167 15.9133V13.2533C5.94689 13.2533 3.83 11.1364 3.83 8.54167H1.17ZM8.54167 15.9133C10.3007 15.9133 11.9182 15.2908 13.1845 14.2611L11.5063 12.1973C10.6932 12.8584 9.66291 13.2533 8.54167 13.2533V15.9133ZM11.4049 14.1696L15.4927 18.2573L17.3736 16.3764L13.2858 12.2887L11.4049 14.1696ZM15.4737 18.238C15.6539 18.4256 15.8696 18.5754 16.1084 18.6786L17.1637 16.2369C17.2497 16.2741 17.3275 16.3281 17.3925 16.3958L15.4737 18.238ZM16.1084 18.6786C16.3471 18.7818 16.604 18.8363 16.8641 18.8389L16.8912 16.1791C16.9849 16.18 17.0776 16.1997 17.1637 16.2369L16.1084 18.6786ZM16.8641 18.8389C17.1242 18.8416 17.3822 18.7923 17.623 18.694L16.6175 16.2313C16.7044 16.1959 16.7974 16.1781 16.8912 16.1791L16.8641 18.8389ZM17.623 18.694C17.8638 18.5957 18.0825 18.4503 18.2664 18.2664L16.3855 16.3855C16.4518 16.3192 16.5307 16.2668 16.6175 16.2313L17.623 18.694ZM18.2664 18.2664C18.4503 18.0825 18.5957 17.8638 18.694 17.623L16.2313 16.6175C16.2668 16.5307 16.3192 16.4518 16.3855 16.3855L18.2664 18.2664ZM18.694 17.623C18.7923 17.3822 18.8416 17.1242 18.8389 16.8641L16.1791 16.8912C16.1781 16.7974 16.1959 16.7044 16.2313 16.6175L18.694 17.623ZM18.8389 16.8641C18.8363 16.604 18.7818 16.3471 18.6786 16.1084L16.2369 17.1637C16.1997 17.0776 16.18 16.9849 16.1791 16.8912L18.8389 16.8641ZM18.6786 16.1084C18.5754 15.8696 18.4256 15.6539 18.238 15.4737L16.3958 17.3925C16.3281 17.3275 16.2741 17.2497 16.2369 17.1637L18.6786 16.1084ZM18.2573 15.4927L14.1696 11.4049L12.2887 13.2858L16.3764 17.3736L18.2573 15.4927ZM14.2611 13.1845C15.2908 11.9182 15.9133 10.3007 15.9133 8.54167H13.2533C13.2533 9.66291 12.8584 10.6932 12.1973 11.5063L14.2611 13.1845ZM15.9133 8.54167C15.9133 4.47781 12.6055 1.17 8.54167 1.17V3.83C11.1364 3.83 13.2533 5.94689 13.2533 8.54167H15.9133ZM8.54167 5.08C10.4609 5.08 12.0033 6.62244 12.0033 8.54167H14.6633C14.6633 5.15336 11.93 2.42 8.54167 2.42V5.08ZM12.0033 8.54167C12.0033 9.47658 11.6364 10.318 11.0375 10.9411L12.9551 12.7845C14.0104 11.6868 14.6633 10.1923 14.6633 8.54167H12.0033ZM11.2086 10.7911C11.0491 10.9083 10.9083 11.0491 10.7911 11.2086L12.9345 12.7839C12.8922 12.8414 12.8414 12.8922 12.7839 12.9345L11.2086 10.7911ZM10.941 11.0375C10.318 11.6364 9.47659 12.0033 8.54167 12.0033V14.6633C10.1923 14.6633 11.6868 14.0104 12.7845 12.9551L10.941 11.0375ZM8.54167 12.0033C6.62244 12.0033 5.08 10.4609 5.08 8.54167H2.42C2.42 11.93 5.15336 14.6633 8.54167 14.6633V12.0033ZM5.08 8.54167C5.08 6.62244 6.62244 5.08 8.54167 5.08V2.42C5.15336 2.42 2.42 5.15336 2.42 8.54167H5.08Z" fill="#71717A" mask="url(#path-1-inside-1_2583_361)"/>
</g>
</g>
</svg>
