<svg width="16" height="16" viewBox="0 0 16 16" fill="none" xmlns="http://www.w3.org/2000/svg">
<g id="Icon/ Source Code">
<g id="Vector">
<mask id="path-1-inside-1_2590_7464" fill="white">
<path d="M9.49477 2.66021C9.3882 2.6618 9.28494 2.6974 9.20003 2.76181C9.11512 2.82623 9.05301 2.91608 9.02276 3.01828L6.02276 12.6849C6.00069 12.7483 5.9916 12.8154 5.99601 12.8824C6.00043 12.9493 6.01827 13.0147 6.04847 13.0746C6.07867 13.1345 6.12062 13.1877 6.17181 13.2311C6.223 13.2744 6.2824 13.307 6.34646 13.3269C6.41051 13.3469 6.47792 13.3537 6.54468 13.347C6.61143 13.3404 6.67616 13.3203 6.73501 13.2881C6.79386 13.2559 6.84563 13.2122 6.88724 13.1596C6.92884 13.107 6.95943 13.0465 6.97719 12.9818L9.97719 3.31515C10.0018 3.23953 10.0081 3.15911 9.99542 3.08059C9.98276 3.00206 9.95154 2.92769 9.90437 2.86365C9.8572 2.7996 9.79543 2.74774 9.72419 2.71235C9.65295 2.67697 9.5743 2.65909 9.49477 2.66021ZM4.50323 4.32817C4.37322 4.3287 4.24852 4.37984 4.15558 4.47075L0.822244 7.63742C0.773041 7.68414 0.73386 7.74038 0.707086 7.80272C0.680311 7.86506 0.666504 7.9322 0.666504 8.00005C0.666504 8.0679 0.680311 8.13504 0.707086 8.19738C0.73386 8.25972 0.773041 8.31596 0.822244 8.36268L4.15558 11.5293C4.2032 11.5746 4.25926 11.61 4.32057 11.6336C4.38187 11.6571 4.44722 11.6684 4.51288 11.6667C4.57854 11.665 4.64323 11.6504 4.70324 11.6237C4.76326 11.597 4.81743 11.5588 4.86266 11.5112C4.90789 11.4635 4.9433 11.4075 4.96686 11.3462C4.99042 11.2849 5.00167 11.2195 4.99998 11.1538C4.99828 11.0882 4.98366 11.0235 4.95697 10.9635C4.93027 10.9035 4.89201 10.8493 4.84438 10.8041L1.89256 8.00005L4.84438 5.19601C4.91856 5.12769 4.97034 5.03853 4.99293 4.94024C5.01552 4.84196 5.00787 4.73913 4.97097 4.64528C4.93408 4.55142 4.86967 4.47091 4.78619 4.41432C4.70272 4.35773 4.60408 4.3277 4.50323 4.32817ZM11.4817 4.32882C11.3823 4.33144 11.2859 4.36365 11.2049 4.42133C11.1239 4.47902 11.0619 4.55956 11.0269 4.65266C10.9918 4.74576 10.9854 4.84719 11.0083 4.94398C11.0312 5.04077 11.0825 5.12852 11.1556 5.19601L14.1074 8.00005L11.1556 10.8041C11.1079 10.8493 11.0697 10.9035 11.043 10.9635C11.0163 11.0235 11.0017 11.0882 11 11.1538C10.9983 11.2195 11.0095 11.2849 11.0331 11.3462C11.0567 11.4075 11.0921 11.4635 11.1373 11.5112C11.1825 11.5588 11.2367 11.597 11.2967 11.6237C11.3567 11.6504 11.4214 11.665 11.4871 11.6667C11.5527 11.6684 11.6181 11.6571 11.6794 11.6336C11.7407 11.61 11.7968 11.5746 11.8444 11.5293L15.1777 8.36268C15.2269 8.31596 15.2661 8.25972 15.2929 8.19738C15.3196 8.13504 15.3335 8.0679 15.3335 8.00005C15.3335 7.9322 15.3196 7.86506 15.2929 7.80272C15.2661 7.74038 15.2269 7.68414 15.1777 7.63742L11.8444 4.47075C11.7965 4.42404 11.7397 4.38742 11.6774 4.36304C11.6152 4.33866 11.5486 4.32703 11.4817 4.32882Z"/>
</mask>
<path d="M9.49477 2.66021C9.3882 2.6618 9.28494 2.6974 9.20003 2.76181C9.11512 2.82623 9.05301 2.91608 9.02276 3.01828L6.02276 12.6849C6.00069 12.7483 5.9916 12.8154 5.99601 12.8824C6.00043 12.9493 6.01827 13.0147 6.04847 13.0746C6.07867 13.1345 6.12062 13.1877 6.17181 13.2311C6.223 13.2744 6.2824 13.307 6.34646 13.3269C6.41051 13.3469 6.47792 13.3537 6.54468 13.347C6.61143 13.3404 6.67616 13.3203 6.73501 13.2881C6.79386 13.2559 6.84563 13.2122 6.88724 13.1596C6.92884 13.107 6.95943 13.0465 6.97719 12.9818L9.97719 3.31515C10.0018 3.23953 10.0081 3.15911 9.99542 3.08059C9.98276 3.00206 9.95154 2.92769 9.90437 2.86365C9.8572 2.7996 9.79543 2.74774 9.72419 2.71235C9.65295 2.67697 9.5743 2.65909 9.49477 2.66021ZM4.50323 4.32817C4.37322 4.3287 4.24852 4.37984 4.15558 4.47075L0.822244 7.63742C0.773041 7.68414 0.73386 7.74038 0.707086 7.80272C0.680311 7.86506 0.666504 7.9322 0.666504 8.00005C0.666504 8.0679 0.680311 8.13504 0.707086 8.19738C0.73386 8.25972 0.773041 8.31596 0.822244 8.36268L4.15558 11.5293C4.2032 11.5746 4.25926 11.61 4.32057 11.6336C4.38187 11.6571 4.44722 11.6684 4.51288 11.6667C4.57854 11.665 4.64323 11.6504 4.70324 11.6237C4.76326 11.597 4.81743 11.5588 4.86266 11.5112C4.90789 11.4635 4.9433 11.4075 4.96686 11.3462C4.99042 11.2849 5.00167 11.2195 4.99998 11.1538C4.99828 11.0882 4.98366 11.0235 4.95697 10.9635C4.93027 10.9035 4.89201 10.8493 4.84438 10.8041L1.89256 8.00005L4.84438 5.19601C4.91856 5.12769 4.97034 5.03853 4.99293 4.94024C5.01552 4.84196 5.00787 4.73913 4.97097 4.64528C4.93408 4.55142 4.86967 4.47091 4.78619 4.41432C4.70272 4.35773 4.60408 4.3277 4.50323 4.32817ZM11.4817 4.32882C11.3823 4.33144 11.2859 4.36365 11.2049 4.42133C11.1239 4.47902 11.0619 4.55956 11.0269 4.65266C10.9918 4.74576 10.9854 4.84719 11.0083 4.94398C11.0312 5.04077 11.0825 5.12852 11.1556 5.19601L14.1074 8.00005L11.1556 10.8041C11.1079 10.8493 11.0697 10.9035 11.043 10.9635C11.0163 11.0235 11.0017 11.0882 11 11.1538C10.9983 11.2195 11.0095 11.2849 11.0331 11.3462C11.0567 11.4075 11.0921 11.4635 11.1373 11.5112C11.1825 11.5588 11.2367 11.597 11.2967 11.6237C11.3567 11.6504 11.4214 11.665 11.4871 11.6667C11.5527 11.6684 11.6181 11.6571 11.6794 11.6336C11.7407 11.61 11.7968 11.5746 11.8444 11.5293L15.1777 8.36268C15.2269 8.31596 15.2661 8.25972 15.2929 8.19738C15.3196 8.13504 15.3335 8.0679 15.3335 8.00005C15.3335 7.9322 15.3196 7.86506 15.2929 7.80272C15.2661 7.74038 15.2269 7.68414 15.1777 7.63742L11.8444 4.47075C11.7965 4.42404 11.7397 4.38742 11.6774 4.36304C11.6152 4.33866 11.5486 4.32703 11.4817 4.32882Z" fill="#71717A"/>
<path d="M9.49477 2.66021L9.47619 1.33033L9.47487 1.33035L9.49477 2.66021ZM9.02276 3.01828L10.293 3.41249L10.2956 3.40414L10.2981 3.39575L9.02276 3.01828ZM6.02276 12.6849L7.27873 13.1225L7.28623 13.101L7.293 13.0792L6.02276 12.6849ZM6.97719 12.9818L5.70696 12.5876L5.70044 12.6086L5.69463 12.6298L6.97719 12.9818ZM9.97719 3.31515L8.71265 2.90304L8.70974 2.91197L8.70696 2.92094L9.97719 3.31515ZM4.50323 4.32817L4.50858 5.65816L4.5095 5.65816L4.50323 4.32817ZM4.15558 4.47075L5.07161 5.435L5.07865 5.42831L5.0856 5.42152L4.15558 4.47075ZM0.822244 7.63742L1.73802 8.60192L1.73828 8.60167L0.822244 7.63742ZM0.666504 8.00005L1.9965 8.00005L0.666504 8.00005ZM0.822244 8.36268L1.73828 7.39843L1.73802 7.39818L0.822244 8.36268ZM4.15558 11.5293L5.07162 10.5651L5.07161 10.5651L4.15558 11.5293ZM4.84438 10.8041L3.92838 11.7684L3.92862 11.7686L4.84438 10.8041ZM1.89256 8.00005L0.976553 7.03577L-0.0385501 8.00005L0.976553 8.96433L1.89256 8.00005ZM4.84438 5.19601L3.94329 4.21778L3.93578 4.2247L3.92838 4.23173L4.84438 5.19601ZM11.4817 4.32882L11.5167 5.65837L11.5175 5.65834L11.4817 4.32882ZM11.1556 5.19601L12.0716 4.23173L12.0649 4.22535L12.0581 4.21906L11.1556 5.19601ZM14.1074 8.00005L15.0234 8.96433L16.0385 8.00005L15.0234 7.03577L14.1074 8.00005ZM11.1556 10.8041L12.0713 11.7686L12.0716 11.7684L11.1556 10.8041ZM11.8444 11.5293L10.9283 10.5651L10.9283 10.5651L11.8444 11.5293ZM15.1777 8.36268L14.2619 7.39818L14.2617 7.39843L15.1777 8.36268ZM15.3335 8.00005L14.0035 8.00005L15.3335 8.00005ZM15.1777 7.63742L14.2617 8.60167L14.2619 8.60192L15.1777 7.63742ZM11.8444 4.47075L10.9156 5.42278L10.922 5.42893L10.9283 5.435L11.8444 4.47075ZM9.47487 1.33035C9.08487 1.33619 8.70694 1.46648 8.39619 1.70221L10.0039 3.82141C9.86294 3.92832 9.69154 3.98741 9.51467 3.99006L9.47487 1.33035ZM8.39619 1.70221C8.08545 1.93795 7.85815 2.2668 7.74745 2.64081L10.2981 3.39575C10.2479 3.56536 10.1448 3.7145 10.0039 3.82141L8.39619 1.70221ZM7.75253 2.62407L4.75253 12.2907L7.293 13.0792L10.293 3.41249L7.75253 2.62407ZM4.7668 12.2474C4.68603 12.4792 4.65273 12.725 4.6689 12.9699L7.32313 12.7948C7.33046 12.9059 7.31536 13.0174 7.27873 13.1225L4.7668 12.2474ZM4.6689 12.9699C4.68506 13.2149 4.75035 13.4541 4.86088 13.6734L7.23606 12.4758C7.28619 12.5752 7.3158 12.6837 7.32313 12.7948L4.6689 12.9699ZM4.86088 13.6734C4.97141 13.8926 5.12493 14.0873 5.31228 14.246L7.03135 12.2161C7.11631 12.2881 7.18593 12.3764 7.23606 12.4758L4.86088 13.6734ZM5.31228 14.246C5.49964 14.4047 5.717 14.524 5.95143 14.5969L6.74148 12.057C6.84779 12.09 6.94637 12.1442 7.03135 12.2161L5.31228 14.246ZM5.95143 14.5969C6.18585 14.6698 6.43255 14.6949 6.67687 14.6704L6.41249 12.0236C6.52329 12.0126 6.63518 12.0239 6.74148 12.057L5.95143 14.5969ZM6.67687 14.6704C6.92117 14.646 7.15806 14.5727 7.37343 14.4549L6.09659 12.1214C6.19426 12.0679 6.30169 12.0347 6.41249 12.0236L6.67687 14.6704ZM7.37343 14.4549C7.5888 14.337 7.77827 14.1771 7.93054 13.9845L5.84393 12.3347C5.91299 12.2474 5.99892 12.1748 6.09659 12.1214L7.37343 14.4549ZM7.93054 13.9845C8.08281 13.7919 8.19477 13.5706 8.25975 13.3339L5.69463 12.6298C5.7241 12.5224 5.77488 12.4221 5.84393 12.3347L7.93054 13.9845ZM8.24743 13.376L11.2474 3.70936L8.70696 2.92094L5.70696 12.5876L8.24743 13.376ZM11.2417 3.72727C11.3319 3.4505 11.3548 3.1562 11.3085 2.86882L8.68239 3.29235C8.66137 3.16202 8.67174 3.02856 8.71265 2.90304L11.2417 3.72727ZM11.3085 2.86882C11.2621 2.58144 11.1479 2.30926 10.9752 2.07487L8.83351 3.65242C8.75522 3.54612 8.70341 3.42268 8.68239 3.29235L11.3085 2.86882ZM10.9752 2.07487C10.8026 1.84049 10.5765 1.65068 10.3158 1.52119L9.13257 3.90352C9.01433 3.8448 8.91181 3.75872 8.83351 3.65242L10.9752 2.07487ZM10.3158 1.52119C10.0551 1.3917 9.76727 1.32627 9.47619 1.33033L9.51334 3.99008C9.38134 3.99192 9.2508 3.96225 9.13257 3.90352L10.3158 1.52119ZM4.49789 2.99818C4.02207 3.0001 3.5657 3.18726 3.22556 3.51998L5.0856 5.42152C4.93134 5.57242 4.72437 5.6573 4.50858 5.65816L4.49789 2.99818ZM3.23954 3.5065L-0.0937928 6.67317L1.73828 8.60167L5.07161 5.435L3.23954 3.5065ZM-0.0935285 6.67292C-0.273596 6.84389 -0.41699 7.04972 -0.514978 7.27787L1.92915 8.32756C1.88471 8.43104 1.81968 8.52438 1.73802 8.60192L-0.0935285 6.67292ZM-0.514978 7.27787C-0.612965 7.50603 -0.663496 7.75174 -0.663496 8.00005L1.9965 8.00005C1.9965 8.11266 1.97359 8.22409 1.92915 8.32756L-0.514978 7.27787ZM-0.663496 8.00005C-0.663496 8.24836 -0.612965 8.49407 -0.514978 8.72222L1.92915 7.67253C1.97359 7.77601 1.9965 7.88744 1.9965 8.00005L-0.663496 8.00005ZM-0.514978 8.72222C-0.41699 8.95038 -0.273596 9.15621 -0.0935285 9.32718L1.73802 7.39818C1.81968 7.47572 1.88471 7.56906 1.92915 7.67253L-0.514978 8.72222ZM-0.0937928 9.32693L3.23954 12.4936L5.07161 10.5651L1.73828 7.39843L-0.0937928 9.32693ZM3.23954 12.4936C3.41379 12.6591 3.61895 12.7887 3.8433 12.875L4.79783 10.3922C4.89957 10.4313 4.9926 10.49 5.07162 10.5651L3.23954 12.4936ZM3.8433 12.875C4.06766 12.9612 4.3068 13.0025 4.54707 12.9963L4.4787 10.3372C4.58765 10.3344 4.69609 10.353 4.79783 10.3922L3.8433 12.875ZM4.54707 12.9963C4.78735 12.9901 5.02405 12.9366 5.24367 12.839L4.16282 10.4085C4.2624 10.3642 4.36974 10.34 4.4787 10.3372L4.54707 12.9963ZM5.24367 12.839C5.46329 12.7413 5.66152 12.6013 5.82704 12.4271L3.89828 10.5953C3.97334 10.5162 4.06323 10.4528 4.16282 10.4085L5.24367 12.839ZM5.82704 12.4271C5.99256 12.2528 6.12213 12.0476 6.20835 11.8232L3.72537 10.8691C3.76447 10.7673 3.82323 10.6743 3.89828 10.5953L5.82704 12.4271ZM6.20835 11.8232C6.29457 11.5989 6.33574 11.3597 6.32953 11.1195L3.67042 11.1882C3.6676 11.0793 3.68628 10.9708 3.72537 10.8691L6.20835 11.8232ZM6.32953 11.1195C6.32332 10.8792 6.26984 10.6425 6.17214 10.4229L3.74179 11.5041C3.69749 11.4045 3.67324 11.2972 3.67042 11.1882L6.32953 11.1195ZM6.17214 10.4229C6.07444 10.2033 5.93444 10.0051 5.76014 9.83957L3.92862 11.7686C3.84958 11.6936 3.7861 11.6037 3.74179 11.5041L6.17214 10.4229ZM5.76038 9.8398L2.80856 7.03577L0.976553 8.96433L3.92838 11.7684L5.76038 9.8398ZM2.80856 8.96433L5.76038 6.16029L3.92838 4.23173L0.976553 7.03577L2.80856 8.96433ZM5.74547 6.17425C6.01693 5.92419 6.20644 5.5979 6.28913 5.23819L3.69674 4.64229C3.73423 4.47916 3.82018 4.33118 3.94329 4.21778L5.74547 6.17425ZM6.28913 5.23819C6.37181 4.87849 6.3438 4.5022 6.20877 4.1587L3.73318 5.13185C3.67194 4.97607 3.65924 4.80542 3.69674 4.64229L6.28913 5.23819ZM6.20877 4.1587C6.07375 3.8152 5.83801 3.52056 5.53252 3.31346L4.03987 5.51518C3.90132 5.42126 3.79441 5.28763 3.73318 5.13185L6.20877 4.1587ZM5.53252 3.31346C5.22702 3.10635 4.86604 2.99645 4.49696 2.99819L4.5095 5.65816C4.34212 5.65895 4.17841 5.60911 4.03987 5.51518L5.53252 3.31346ZM11.4468 2.99928C11.0829 3.00885 10.7301 3.12673 10.4336 3.33784L11.9762 5.50483C11.8417 5.60057 11.6817 5.65403 11.5167 5.65837L11.4468 2.99928ZM10.4336 3.33784C10.137 3.54895 9.91015 3.84371 9.78199 4.18444L12.2717 5.12088C12.2136 5.27541 12.1107 5.40908 11.9762 5.50483L10.4336 3.33784ZM9.78199 4.18444C9.65384 4.52516 9.63021 4.89636 9.71413 5.25058L12.3025 4.63737C12.3405 4.79802 12.3298 4.96636 12.2717 5.12088L9.78199 4.18444ZM9.71413 5.25058C9.79805 5.6048 9.9857 5.92595 10.2531 6.17296L12.0581 4.21906C12.1793 4.33109 12.2644 4.47673 12.3025 4.63737L9.71413 5.25058ZM10.2396 6.16029L13.1914 8.96433L15.0234 7.03577L12.0716 4.23173L10.2396 6.16029ZM13.1914 7.03577L10.2396 9.8398L12.0716 11.7684L15.0234 8.96433L13.1914 7.03577ZM10.2398 9.83957C10.0655 10.0051 9.92551 10.2033 9.82782 10.4229L12.2582 11.5041C12.2139 11.6037 12.1504 11.6936 12.0713 11.7686L10.2398 9.83957ZM9.82782 10.4229C9.73012 10.6425 9.67664 10.8792 9.67042 11.1195L12.3295 11.1882C12.3267 11.2972 12.3025 11.4045 12.2582 11.5041L9.82782 10.4229ZM9.67042 11.1195C9.66421 11.3597 9.70539 11.5989 9.79161 11.8232L12.2746 10.8691C12.3137 10.9708 12.3324 11.0792 12.3295 11.1882L9.67042 11.1195ZM9.79161 11.8232C9.87783 12.0476 10.0074 12.2528 10.1729 12.4271L12.1017 10.5953C12.1767 10.6743 12.2355 10.7673 12.2746 10.8691L9.79161 11.8232ZM10.1729 12.4271C10.3384 12.6013 10.5367 12.7413 10.7563 12.839L11.8371 10.4085C11.9367 10.4528 12.0266 10.5162 12.1017 10.5953L10.1729 12.4271ZM10.7563 12.839C10.9759 12.9366 11.2126 12.9901 11.4529 12.9963L11.5213 10.3372C11.6302 10.34 11.7376 10.3642 11.8371 10.4085L10.7563 12.839ZM11.4529 12.9963C11.6932 13.0025 11.9323 12.9612 12.1567 12.875L11.2021 10.3922C11.3039 10.353 11.4123 10.3344 11.5213 10.3372L11.4529 12.9963ZM12.1567 12.875C12.381 12.7887 12.5862 12.6591 12.7604 12.4936L10.9283 10.5651C11.0074 10.49 11.1004 10.4313 11.2021 10.3922L12.1567 12.875ZM12.7604 12.4936L16.0937 9.32693L14.2617 7.39843L10.9283 10.5651L12.7604 12.4936ZM16.0935 9.32718C16.2736 9.15621 16.4169 8.95038 16.5149 8.72222L14.0708 7.67253C14.1152 7.56906 14.1803 7.47572 14.2619 7.39818L16.0935 9.32718ZM16.5149 8.72222C16.6129 8.49407 16.6635 8.24836 16.6635 8.00005L14.0035 8.00005C14.0035 7.88744 14.0264 7.776 14.0708 7.67253L16.5149 8.72222ZM16.6635 8.00005C16.6635 7.75174 16.6129 7.50603 16.5149 7.27787L14.0708 8.32756C14.0264 8.22409 14.0035 8.11266 14.0035 8.00005L16.6635 8.00005ZM16.5149 7.27787C16.4169 7.04972 16.2736 6.84389 16.0935 6.67292L14.2619 8.60192C14.1803 8.52438 14.1152 8.43103 14.0708 8.32756L16.5149 7.27787ZM16.0937 6.67317L12.7604 3.5065L10.9283 5.435L14.2617 8.60167L16.0937 6.67317ZM12.7731 3.51872C12.5979 3.34778 12.3901 3.21374 12.1622 3.12452L11.1927 5.60156C11.0893 5.5611 10.9951 5.50031 10.9156 5.42278L12.7731 3.51872ZM12.1622 3.12452C11.9342 3.0353 11.6907 2.99272 11.446 2.99931L11.5175 5.65834C11.4065 5.66133 11.2961 5.64202 11.1927 5.60156L12.1622 3.12452Z" fill="#71717A" mask="url(#path-1-inside-1_2590_7464)"/>
</g>
</g>
</svg>
