<svg width="24" height="24" viewBox="0 0 24 24" fill="none" xmlns="http://www.w3.org/2000/svg">
<g id="No Video">
<path id="Vector" d="M21.2353 1.99317C21.0406 1.99885 20.8556 2.0801 20.7197 2.21973L2.21972 20.7197C2.14774 20.7888 2.09028 20.8716 2.05069 20.9632C2.0111 21.0548 1.99019 21.1534 1.98917 21.2532C1.98816 21.3529 2.00706 21.4519 2.04478 21.5443C2.0825 21.6367 2.13827 21.7206 2.20883 21.7912C2.27939 21.8617 2.36331 21.9175 2.4557 21.9552C2.54808 21.9929 2.64706 22.0118 2.74684 22.0108C2.84662 22.0098 2.94519 21.9889 3.03679 21.9493C3.12838 21.9097 3.21116 21.8523 3.28027 21.7803L5.56054 19.5H12.75C14.545 19.5 16 18.045 16 16.25V9.06055L21.7803 3.28028C21.8885 3.1749 21.9623 3.03931 21.9922 2.89126C22.0221 2.74321 22.0065 2.58959 21.9477 2.4505C21.8888 2.31142 21.7893 2.19335 21.6622 2.11175C21.5351 2.03015 21.3863 1.98882 21.2353 1.99317ZM5.24999 4.50001C3.45499 4.50001 1.99999 5.95501 1.99999 7.75001V16.25C1.99999 16.98 2.24341 17.6509 2.64941 18.1934L15.2119 5.63184C14.6159 4.94034 13.735 4.50001 12.75 4.50001H5.24999ZM21.2402 6.50001C21.1097 6.50163 20.9803 6.53793 20.8643 6.60743L17 8.92579V15.0742L20.8643 17.3926C20.9828 17.4641 21.116 17.5 21.25 17.5C21.3775 17.5 21.5046 17.4673 21.6191 17.4023C21.8541 17.2693 22 17.0205 22 16.75V7.25001C22 6.97951 21.8541 6.73066 21.6191 6.59766C21.5016 6.53116 21.3707 6.49838 21.2402 6.50001Z" fill="white"/>
</g>
</svg>
